<svg width="24" height="25" viewBox="0 0 24 25" fill="none" xmlns="http://www.w3.org/2000/svg">
<path d="M19.5075 15.2395C19.2491 15.7245 18.9443 16.1833 18.5975 16.6095C18.562 16.6535 18.526 16.6965 18.49 16.7395L18.489 16.7405L18.481 16.75H18.5L13.4555 22.105C13.2685 22.3035 13.0429 22.4616 12.7926 22.5697C12.5423 22.6778 12.2724 22.7336 11.9998 22.7336C11.7271 22.7336 11.4573 22.6778 11.2069 22.5697C10.9566 22.4616 10.731 22.3035 10.544 22.105L5.50001 16.75H5.51901C5.51651 16.747 5.51351 16.743 5.51001 16.74L5.50001 16.7275C4.20536 15.1963 3.49657 13.2551 3.50001 11.25C3.50001 6.5555 7.30551 2.75 12 2.75C16.6945 2.75 20.5 6.5555 20.5 11.25C20.5021 12.6414 20.1615 14.0114 19.5075 15.2395ZM14.1233 13.6213C14.6859 13.0587 15.002 12.2956 15.002 11.5C15.002 10.7043 14.6859 9.94129 14.1233 9.37868C13.5607 8.81607 12.7977 8.5 12.002 8.5C11.2064 8.5 10.4433 8.81607 9.88069 9.37868C9.31808 9.94129 9.00201 10.7044 9.00201 11.5C9.00201 12.2957 9.31808 13.0587 9.88069 13.6213C10.4433 14.1839 11.2064 14.5 12.002 14.5C12.7977 14.5 13.5607 14.1839 14.1233 13.6213Z" fill="white"/>
</svg>
