<svg xmlns="http://www.w3.org/2000/svg" width="26" height="25" viewBox="2.75 3.75 26 25"><g data-name="https://www.flaticon.com/free-icon/motivation_4835292?related_id=4835292"><path d="M3.435 15.001h1.563c.21 0 .38.178.38.398a.39.39 0 0 1-.38.399H3.762v12.404h3.444V15.798h-.43a.39.39 0 0 1-.382-.399c0-.22.17-.398.381-.398h2.861c.24 0 .435.204.435.455v.279h.449c.404 0 .802-.152 1.122-.429a7.28 7.28 0 0 1 2.252-1.334c.999-.368 1.8-1.231 2.144-2.31L18.38 4.31A.434.434 0 0 1 18.79 4c1.763 0 3.198 1.5 3.198 3.346v1.668a.39.39 0 0 1-.38.399.39.39 0 0 1-.382-.399V7.346c0-1.323-.968-2.414-2.202-2.538l-2.265 7.107c-.417 1.31-1.394 2.36-2.613 2.808a6.53 6.53 0 0 0-2.02 1.197 2.464 2.464 0 0 1-1.607.612h-.449v5.54a.39.39 0 0 1-.38.398.39.39 0 0 1-.381-.398v-6.274H7.968v10.937H9.31v-2.804c0-.22.17-.398.38-.398s.381.178.381.398v2.072h.449c.58 0 1.151.217 1.607.612a6.463 6.463 0 0 0 4.223 1.588h6.487a1.648 1.648 0 0 1-.207-.805v-1.26c0-.48.202-.91.521-1.204a1.63 1.63 0 0 1-.521-1.203v-1.26c0-.48.202-.91.521-1.204a1.63 1.63 0 0 1-.521-1.203v-1.26c0-.48.202-.91.521-1.204a1.63 1.63 0 0 1-.521-1.203v-1.555c0-.19.038-.37.108-.532-.854-.137-1.51-.91-1.51-1.841v-1.595c0-.22.17-.399.38-.399s.381.178.381.399v1.595c0 .587.457 1.066 1.02 1.066h4.46c.844 0 1.531.718 1.531 1.601v1.261c0 .479-.202.91-.521 1.203.319.294.521.724.521 1.203v1.261c0 .48-.202.91-.521 1.203.319.294.521.724.521 1.203v1.261c0 .678-.405 1.26-.975 1.493.173.259.274.574.274.913v1.261c0 .884-.687 1.602-1.53 1.602H16.35a7.206 7.206 0 0 1-4.708-1.771 1.721 1.721 0 0 0-1.122-.43h-.449v.278a.446.446 0 0 1-.435.455H7.968v1.012a.446.446 0 0 1-.435.455H3.435A.446.446 0 0 1 3 28.544V15.456c0-.25.195-.455.435-.455Zm24.803 1.396v-1.26c0-.445-.345-.806-.769-.806h-3.592a.5.5 0 0 0-.486.511v1.555c0 .444.345.805.77.805h3.308c.424 0 .77-.361.77-.805Zm0 3.667v-1.26c0-.444-.345-.805-.769-.805H24.16c-.424 0-.769.36-.769.804v1.261c0 .444.345.805.77.805h3.308c.424 0 .77-.361.77-.805Zm0 2.406c0-.443-.345-.804-.769-.804H24.16c-.424 0-.769.36-.769.804v1.261c0 .444.345.805.77.805h3.308c.424 0 .77-.36.77-.805v-1.26Zm-.7 4.928v-1.26c0-.444-.346-.805-.77-.805h-2.607c-.424 0-.77.36-.77.805v1.26c0 .444.346.805.77.805h2.607c.424 0 .77-.36.77-.805Z" fill="#191919" fill-rule="evenodd"/><path d="M3.435 15.001h1.563c.21 0 .38.178.38.398a.39.39 0 0 1-.38.399H3.762v12.404h3.444V15.798h-.43a.39.39 0 0 1-.382-.399c0-.22.17-.398.381-.398h2.861c.24 0 .435.204.435.455v.279h.449c.404 0 .802-.152 1.122-.429a7.28 7.28 0 0 1 2.252-1.334c.999-.368 1.8-1.231 2.144-2.31L18.38 4.31A.434.434 0 0 1 18.79 4c1.763 0 3.198 1.5 3.198 3.346v1.668a.39.39 0 0 1-.38.399.39.39 0 0 1-.382-.399V7.346c0-1.323-.968-2.414-2.202-2.538l-2.265 7.107c-.417 1.31-1.394 2.36-2.613 2.808a6.53 6.53 0 0 0-2.02 1.197 2.464 2.464 0 0 1-1.607.612h-.449v5.54a.39.39 0 0 1-.38.398.39.39 0 0 1-.381-.398v-6.274H7.968v10.937H9.31v-2.804c0-.22.17-.398.38-.398s.381.178.381.398v2.072h.449c.58 0 1.151.217 1.607.612a6.463 6.463 0 0 0 4.223 1.588h6.487a1.648 1.648 0 0 1-.207-.805v-1.26c0-.48.202-.91.521-1.204a1.63 1.63 0 0 1-.521-1.203v-1.26c0-.48.202-.91.521-1.204a1.63 1.63 0 0 1-.521-1.203v-1.26c0-.48.202-.91.521-1.204a1.63 1.63 0 0 1-.521-1.203v-1.555c0-.19.038-.37.108-.532-.854-.137-1.51-.91-1.51-1.841v-1.595c0-.22.17-.399.38-.399s.381.178.381.399v1.595c0 .587.457 1.066 1.02 1.066h4.46c.844 0 1.531.718 1.531 1.601v1.261c0 .479-.202.91-.521 1.203.319.294.521.724.521 1.203v1.261c0 .48-.202.91-.521 1.203.319.294.521.724.521 1.203v1.261c0 .678-.405 1.26-.975 1.493.173.259.274.574.274.913v1.261c0 .884-.687 1.602-1.53 1.602H16.35a7.206 7.206 0 0 1-4.708-1.771 1.721 1.721 0 0 0-1.122-.43h-.449v.278a.446.446 0 0 1-.435.455H7.968v1.012a.446.446 0 0 1-.435.455H3.435A.446.446 0 0 1 3 28.544V15.456c0-.25.195-.455.435-.455Zm24.803 1.396v-1.26c0-.445-.345-.806-.769-.806h-3.592a.5.5 0 0 0-.486.511v1.555c0 .444.345.805.77.805h3.308c.424 0 .77-.361.77-.805Zm0 3.667v-1.26c0-.444-.345-.805-.769-.805H24.16c-.424 0-.769.36-.769.804v1.261c0 .444.345.805.77.805h3.308c.424 0 .77-.361.77-.805Zm0 2.406c0-.443-.345-.804-.769-.804H24.16c-.424 0-.769.36-.769.804v1.261c0 .444.345.805.77.805h3.308c.424 0 .77-.36.77-.805v-1.26Zm-.7 4.928v-1.26c0-.444-.346-.805-.77-.805h-2.607c-.424 0-.77.36-.77.805v1.26c0 .444.346.805.77.805h2.607c.424 0 .77-.36.77-.805Z" stroke-linejoin="round" stroke-linecap="round" stroke-width=".5" stroke="#191919" fill="transparent"/></g></svg>