<svg width="24" height="24" viewBox="0 0 24 24" fill="none" xmlns="http://www.w3.org/2000/svg">
<path d="M15.6304 14.4C15.747 14.2854 15.8904 14.2016 16.0475 14.1562C16.2046 14.1108 16.3706 14.1052 16.5304 14.14L20.2004 14.87C20.6604 14.96 21.0004 15.37 21.0004 15.85V20C21.0004 20.56 20.5304 21.03 19.9704 21C17.0804 20.83 14.3704 19.94 12.0004 18.57C9.28039 16.99 7.01039 14.73 5.43038 12C4.05038 9.63 3.17038 6.92 3.00038 4.03C2.97038 3.47 3.44038 3 4.00038 3H8.15038C8.63038 3 9.04038 3.34 9.13038 3.8L9.88038 7.48C9.94038 7.81 9.84038 8.14 9.61038 8.38L7.11038 10.9C8.54038 13.4 10.6104 15.47 13.1104 16.9L15.6304 14.4Z" fill="white"/>
</svg>
