<svg width="168" height="62" viewBox="0 0 168 62" fill="none" xmlns="http://www.w3.org/2000/svg">
<path d="M58.0597 46.8652H57.267C57.2202 46.6373 57.1381 46.437 57.021 46.2644C56.9059 46.0918 56.7653 45.9469 56.5991 45.8297C56.435 45.7104 56.2528 45.6209 56.0526 45.5613C55.8523 45.5016 55.6435 45.4718 55.4261 45.4718C55.0298 45.4718 54.6708 45.5719 54.3491 45.7722C54.0295 45.9725 53.7749 46.2676 53.5852 46.6575C53.3977 47.0474 53.304 47.5257 53.304 48.0925C53.304 48.6593 53.3977 49.1376 53.5852 49.5275C53.7749 49.9174 54.0295 50.2125 54.3491 50.4128C54.6708 50.6131 55.0298 50.7132 55.4261 50.7132C55.6435 50.7132 55.8523 50.6834 56.0526 50.6238C56.2528 50.5641 56.435 50.4757 56.5991 50.3585C56.7653 50.2392 56.9059 50.0932 57.021 49.9206C57.1381 49.7459 57.2202 49.5456 57.267 49.3198H58.0597C58 49.6543 57.8913 49.9537 57.7337 50.2179C57.576 50.4821 57.38 50.7069 57.1456 50.8922C56.9112 51.0755 56.6481 51.215 56.3562 51.3109C56.0664 51.4068 55.7564 51.4547 55.4261 51.4547C54.8679 51.4547 54.3714 51.3184 53.9368 51.0456C53.5021 50.7729 53.1602 50.3851 52.9109 49.8823C52.6616 49.3794 52.5369 48.7828 52.5369 48.0925C52.5369 47.4022 52.6616 46.8056 52.9109 46.3027C53.1602 45.7999 53.5021 45.4121 53.9368 45.1394C54.3714 44.8667 54.8679 44.7303 55.4261 44.7303C55.7564 44.7303 56.0664 44.7782 56.3562 44.8741C56.6481 44.97 56.9112 45.1106 57.1456 45.296C57.38 45.4792 57.576 45.7029 57.7337 45.9672C57.8913 46.2292 58 46.5286 58.0597 46.8652ZM64.9532 48.0925C64.9532 48.7828 64.8285 49.3794 64.5793 49.8823C64.33 50.3851 63.988 50.7729 63.5533 51.0456C63.1187 51.3184 62.6222 51.4547 62.064 51.4547C61.5057 51.4547 61.0093 51.3184 60.5746 51.0456C60.14 50.7729 59.798 50.3851 59.5487 49.8823C59.2994 49.3794 59.1748 48.7828 59.1748 48.0925C59.1748 47.4022 59.2994 46.8056 59.5487 46.3027C59.798 45.7999 60.14 45.4121 60.5746 45.1394C61.0093 44.8667 61.5057 44.7303 62.064 44.7303C62.6222 44.7303 63.1187 44.8667 63.5533 45.1394C63.988 45.4121 64.33 45.7999 64.5793 46.3027C64.8285 46.8056 64.9532 47.4022 64.9532 48.0925ZM64.1861 48.0925C64.1861 47.5257 64.0913 47.0474 63.9017 46.6575C63.7142 46.2676 63.4596 45.9725 63.1379 45.7722C62.8182 45.5719 62.4603 45.4718 62.064 45.4718C61.6677 45.4718 61.3087 45.5719 60.9869 45.7722C60.6673 45.9725 60.4127 46.2676 60.2231 46.6575C60.0356 47.0474 59.9418 47.5257 59.9418 48.0925C59.9418 48.6593 60.0356 49.1376 60.2231 49.5275C60.4127 49.9174 60.6673 50.2125 60.9869 50.4128C61.3087 50.6131 61.6677 50.7132 62.064 50.7132C62.4603 50.7132 62.8182 50.6131 63.1379 50.4128C63.4596 50.2125 63.7142 49.9174 63.9017 49.5275C64.0913 49.1376 64.1861 48.6593 64.1861 48.0925ZM71.5663 44.8198V51.3652H70.7992L67.2325 46.226H67.1685V51.3652H66.3759V44.8198H67.143L70.7225 49.9718H70.7864V44.8198H71.5663ZM76.8218 46.4561C76.7835 46.1323 76.628 45.8809 76.3552 45.7019C76.0825 45.5229 75.748 45.4334 75.3517 45.4334C75.0619 45.4334 74.8084 45.4803 74.591 45.574C74.3758 45.6678 74.2075 45.7967 74.0861 45.9608C73.9667 46.1248 73.9071 46.3113 73.9071 46.5201C73.9071 46.6948 73.9486 46.845 74.0317 46.9707C74.1169 47.0943 74.2256 47.1976 74.3577 47.2807C74.4898 47.3617 74.6283 47.4288 74.7732 47.4821C74.9181 47.5332 75.0513 47.5748 75.1727 47.6067L75.8375 47.7857C76.0079 47.8304 76.1976 47.8922 76.4064 47.9711C76.6173 48.0499 76.8187 48.1575 77.0104 48.2939C77.2043 48.4281 77.3641 48.6007 77.4898 48.8116C77.6155 49.0225 77.6784 49.2814 77.6784 49.5882C77.6784 49.9419 77.5857 50.2615 77.4003 50.5471C77.2171 50.8326 76.9486 51.0595 76.5949 51.2278C76.2434 51.3961 75.8162 51.4803 75.3133 51.4803C74.8446 51.4803 74.4387 51.4047 74.0956 51.2534C73.7547 51.1021 73.4863 50.8912 73.2902 50.6206C73.0963 50.35 72.9866 50.0357 72.9611 49.6777H73.7792C73.8005 49.9249 73.8836 50.1294 74.0285 50.2914C74.1755 50.4512 74.3609 50.5705 74.5846 50.6493C74.8105 50.726 75.0534 50.7644 75.3133 50.7644C75.6159 50.7644 75.8875 50.7154 76.1283 50.6174C76.3691 50.5172 76.5598 50.3787 76.7004 50.2019C76.841 50.0229 76.9113 49.8141 76.9113 49.5755C76.9113 49.3581 76.8506 49.1813 76.7292 49.0449C76.6077 48.9086 76.4479 48.7978 76.2498 48.7125C76.0516 48.6273 75.8375 48.5527 75.6074 48.4888L74.802 48.2587C74.2906 48.1117 73.8858 47.9018 73.5875 47.6291C73.2892 47.3564 73.14 46.9995 73.14 46.5584C73.14 46.1919 73.2391 45.8723 73.4373 45.5996C73.6375 45.3248 73.906 45.1117 74.2427 44.9604C74.5814 44.807 74.9596 44.7303 75.3772 44.7303C75.7991 44.7303 76.1741 44.8059 76.5022 44.9572C76.8304 45.1064 77.0903 45.3109 77.2821 45.5708C77.476 45.8308 77.5782 46.1259 77.5889 46.4561H76.8218ZM83.367 44.8198H84.1596V49.1536C84.1596 49.601 84.0542 50.0005 83.8432 50.3521C83.6344 50.7015 83.3393 50.9775 82.9579 51.1799C82.5765 51.3801 82.1291 51.4803 81.6156 51.4803C81.1021 51.4803 80.6547 51.3801 80.2733 51.1799C79.8919 50.9775 79.5957 50.7015 79.3848 50.3521C79.176 50.0005 79.0716 49.601 79.0716 49.1536V44.8198H79.8642V49.0897C79.8642 49.4093 79.9345 49.6937 80.0751 49.943C80.2157 50.1902 80.416 50.3851 80.676 50.5279C80.938 50.6685 81.2512 50.7388 81.6156 50.7388C81.9799 50.7388 82.2932 50.6685 82.5552 50.5279C82.8173 50.3851 83.0176 50.1902 83.1561 49.943C83.2967 49.6937 83.367 49.4093 83.367 49.0897V44.8198ZM85.8325 51.3652V44.8198H86.6251V50.6621H89.6677V51.3652H85.8325ZM89.7569 45.5229V44.8198H94.666V45.5229H92.6077V51.3652H91.8151V45.5229H89.7569ZM96.7719 44.8198V51.3652H95.9793V44.8198H96.7719ZM103.641 44.8198V51.3652H102.874L99.3076 46.226H99.2437V51.3652H98.4511V44.8198H99.2181L102.798 49.9718H102.862V44.8198H103.641ZM109.792 46.8652C109.722 46.65 109.629 46.4572 109.514 46.2868C109.401 46.1142 109.266 45.9672 109.108 45.8457C108.952 45.7243 108.776 45.6316 108.577 45.5676C108.379 45.5037 108.162 45.4718 107.925 45.4718C107.538 45.4718 107.185 45.5719 106.868 45.7722C106.55 45.9725 106.298 46.2676 106.11 46.6575C105.923 47.0474 105.829 47.5257 105.829 48.0925C105.829 48.6593 105.924 49.1376 106.113 49.5275C106.303 49.9174 106.56 50.2125 106.884 50.4128C107.207 50.6131 107.572 50.7132 107.977 50.7132C108.352 50.7132 108.682 50.6333 108.967 50.4735C109.255 50.3116 109.479 50.0836 109.638 49.7896C109.8 49.4934 109.881 49.1451 109.881 48.7445L110.124 48.7956H108.156V48.0925H110.648V48.7956C110.648 49.3347 110.533 49.8034 110.303 50.2019C110.075 50.6003 109.76 50.9093 109.357 51.1287C108.957 51.3461 108.496 51.4547 107.977 51.4547C107.397 51.4547 106.888 51.3184 106.449 51.0456C106.012 50.7729 105.671 50.3851 105.426 49.8823C105.183 49.3794 105.062 48.7828 105.062 48.0925C105.062 47.5748 105.131 47.1092 105.27 46.6958C105.41 46.2804 105.608 45.9267 105.864 45.6348C106.12 45.3429 106.422 45.1191 106.772 44.9636C107.121 44.8081 107.506 44.7303 107.925 44.7303C108.271 44.7303 108.592 44.7825 108.891 44.8869C109.191 44.9892 109.458 45.1351 109.693 45.3248C109.929 45.5123 110.126 45.737 110.284 45.9991C110.442 46.2591 110.55 46.5478 110.61 46.8652H109.792ZM118.297 46.4561C118.258 46.1323 118.103 45.8809 117.83 45.7019C117.557 45.5229 117.223 45.4334 116.827 45.4334C116.537 45.4334 116.283 45.4803 116.066 45.574C115.851 45.6678 115.682 45.7967 115.561 45.9608C115.442 46.1248 115.382 46.3113 115.382 46.5201C115.382 46.6948 115.424 46.845 115.507 46.9707C115.592 47.0943 115.7 47.1976 115.833 47.2807C115.965 47.3617 116.103 47.4288 116.248 47.4821C116.393 47.5332 116.526 47.5748 116.648 47.6067L117.312 47.7857C117.483 47.8304 117.672 47.8922 117.881 47.9711C118.092 48.0499 118.294 48.1575 118.485 48.2939C118.679 48.4281 118.839 48.6007 118.965 48.8116C119.09 49.0225 119.153 49.2814 119.153 49.5882C119.153 49.9419 119.061 50.2615 118.875 50.5471C118.692 50.8326 118.424 51.0595 118.07 51.2278C117.718 51.3961 117.291 51.4803 116.788 51.4803C116.319 51.4803 115.914 51.4047 115.571 51.2534C115.23 51.1021 114.961 50.8912 114.765 50.6206C114.571 50.35 114.462 50.0357 114.436 49.6777H115.254C115.275 49.9249 115.359 50.1294 115.503 50.2914C115.65 50.4512 115.836 50.5705 116.06 50.6493C116.285 50.726 116.528 50.7644 116.788 50.7644C117.091 50.7644 117.362 50.7154 117.603 50.6174C117.844 50.5172 118.035 50.3787 118.175 50.2019C118.316 50.0229 118.386 49.8141 118.386 49.5755C118.386 49.3581 118.325 49.1813 118.204 49.0449C118.083 48.9086 117.923 48.7978 117.725 48.7125C117.526 48.6273 117.312 48.5527 117.082 48.4888L116.277 48.2587C115.765 48.1117 115.361 47.9018 115.062 47.6291C114.764 47.3564 114.615 46.9995 114.615 46.5584C114.615 46.1919 114.714 45.8723 114.912 45.5996C115.112 45.3248 115.381 45.1117 115.718 44.9604C116.056 44.807 116.435 44.7303 116.852 44.7303C117.274 44.7303 117.649 44.8059 117.977 44.9572C118.305 45.1064 118.565 45.3109 118.757 45.5708C118.951 45.8308 119.053 46.1259 119.064 46.4561H118.297ZM120.546 51.3652V44.8198H124.497V45.5229H121.339V47.7346H124.292V48.4377H121.339V50.6621H124.548V51.3652H120.546ZM126.015 51.3652V44.8198H128.227C128.738 44.8198 129.158 44.9071 129.486 45.0819C129.814 45.2544 130.057 45.492 130.215 45.7946C130.373 46.0971 130.451 46.4412 130.451 46.8269C130.451 47.2125 130.373 47.5545 130.215 47.8528C130.057 48.1511 129.815 48.3855 129.489 48.5559C129.163 48.7243 128.747 48.8084 128.24 48.8084H126.45V48.0925H128.214C128.564 48.0925 128.845 48.0414 129.058 47.9391C129.273 47.8368 129.429 47.6919 129.525 47.5044C129.623 47.3148 129.672 47.089 129.672 46.8269C129.672 46.5648 129.623 46.3358 129.525 46.1397C129.427 45.9437 129.27 45.7924 129.055 45.6859C128.84 45.5772 128.555 45.5229 128.201 45.5229H126.808V51.3652H126.015ZM129.096 48.4249L130.707 51.3652H129.787L128.201 48.4249H129.096ZM131.981 44.8198L133.924 50.3297H134.001L135.944 44.8198H136.775L134.372 51.3652H133.554L131.15 44.8198H131.981ZM138.677 44.8198V51.3652H137.885V44.8198H138.677ZM145.624 46.8652H144.831C144.784 46.6373 144.702 46.437 144.585 46.2644C144.47 46.0918 144.329 45.9469 144.163 45.8297C143.999 45.7104 143.817 45.6209 143.617 45.5613C143.416 45.5016 143.207 45.4718 142.99 45.4718C142.594 45.4718 142.235 45.5719 141.913 45.7722C141.594 45.9725 141.339 46.2676 141.149 46.6575C140.962 47.0474 140.868 47.5257 140.868 48.0925C140.868 48.6593 140.962 49.1376 141.149 49.5275C141.339 49.9174 141.594 50.2125 141.913 50.4128C142.235 50.6131 142.594 50.7132 142.99 50.7132C143.207 50.7132 143.416 50.6834 143.617 50.6238C143.817 50.5641 143.999 50.4757 144.163 50.3585C144.329 50.2392 144.47 50.0932 144.585 49.9206C144.702 49.7459 144.784 49.5456 144.831 49.3198H145.624C145.564 49.6543 145.455 49.9537 145.298 50.2179C145.14 50.4821 144.944 50.7069 144.71 50.8922C144.475 51.0755 144.212 51.215 143.92 51.3109C143.63 51.4068 143.32 51.4547 142.99 51.4547C142.432 51.4547 141.935 51.3184 141.501 51.0456C141.066 50.7729 140.724 50.3851 140.475 49.8823C140.226 49.3794 140.101 48.7828 140.101 48.0925C140.101 47.4022 140.226 46.8056 140.475 46.3027C140.724 45.7999 141.066 45.4121 141.501 45.1394C141.935 44.8667 142.432 44.7303 142.99 44.7303C143.32 44.7303 143.63 44.7782 143.92 44.8741C144.212 44.97 144.475 45.1106 144.71 45.296C144.944 45.4792 145.14 45.7029 145.298 45.9672C145.455 46.2292 145.564 46.5286 145.624 46.8652ZM146.994 51.3652V44.8198H150.945V45.5229H147.787V47.7346H150.74V48.4377H147.787V50.6621H150.996V51.3652H146.994Z" fill="#84848A"/>
<path d="M65.86 33.5121C63.316 33.5121 61.132 32.9721 59.308 31.8921C57.484 30.7881 56.08 29.2641 55.096 27.3201C54.112 25.3521 53.62 23.0841 53.62 20.5161C53.62 17.9481 54.112 15.6801 55.096 13.7121C56.08 11.7441 57.484 10.2081 59.308 9.10408C61.132 8.00008 63.316 7.44808 65.86 7.44808C68.884 7.44808 71.356 8.20408 73.276 9.71608C75.22 11.2041 76.432 13.3041 76.912 16.0161H71.836C71.524 14.6481 70.852 13.5801 69.82 12.8121C68.812 12.0201 67.468 11.6241 65.788 11.6241C63.46 11.6241 61.636 12.4161 60.316 14.0001C58.996 15.5841 58.336 17.7561 58.336 20.5161C58.336 23.2761 58.996 25.4481 60.316 27.0321C61.636 28.5921 63.46 29.3721 65.788 29.3721C67.468 29.3721 68.812 29.0121 69.82 28.2921C70.852 27.5481 71.524 26.5281 71.836 25.2321H76.912C76.432 27.8241 75.22 29.8521 73.276 31.3161C71.356 32.7801 68.884 33.5121 65.86 33.5121ZM80.163 33.0801V15.2241H84.267L84.699 18.5721C85.347 17.4201 86.223 16.5081 87.327 15.8361C88.455 15.1401 89.775 14.7921 91.287 14.7921V19.6521H89.991C88.983 19.6521 88.083 19.8081 87.291 20.1201C86.499 20.4321 85.875 20.9721 85.419 21.7401C84.987 22.5081 84.771 23.5761 84.771 24.9441V33.0801H80.163ZM96.2004 12.4521C95.3604 12.4521 94.6644 12.2001 94.1124 11.6961C93.5844 11.1921 93.3204 10.5561 93.3204 9.78808C93.3204 9.02008 93.5844 8.39608 94.1124 7.91608C94.6644 7.41208 95.3604 7.16008 96.2004 7.16008C97.0404 7.16008 97.7244 7.41208 98.2524 7.91608C98.8044 8.39608 99.0804 9.02008 99.0804 9.78808C99.0804 10.5561 98.8044 11.1921 98.2524 11.6961C97.7244 12.2001 97.0404 12.4521 96.2004 12.4521ZM93.8964 33.0801V15.2241H98.5044V33.0801H93.8964ZM110.55 33.0801C108.678 33.0801 107.178 32.6241 106.05 31.7121C104.922 30.8001 104.358 29.1801 104.358 26.8521V19.0761H101.298V15.2241H104.358L104.898 10.4361H108.966V15.2241H113.79V19.0761H108.966V26.8881C108.966 27.7521 109.146 28.3521 109.506 28.6881C109.89 29.0001 110.538 29.1561 111.45 29.1561H113.682V33.0801H110.55ZM125.137 33.5121C123.409 33.5121 121.849 33.1161 120.457 32.3241C119.089 31.5321 117.997 30.4401 117.181 29.0481C116.389 27.6321 115.993 26.0001 115.993 24.1521C115.993 22.3041 116.401 20.6841 117.217 19.2921C118.033 17.8761 119.125 16.7721 120.493 15.9801C121.885 15.1881 123.445 14.7921 125.173 14.7921C126.877 14.7921 128.413 15.1881 129.781 15.9801C131.173 16.7721 132.265 17.8761 133.057 19.2921C133.873 20.6841 134.281 22.3041 134.281 24.1521C134.281 26.0001 133.873 27.6321 133.057 29.0481C132.265 30.4401 131.173 31.5321 129.781 32.3241C128.389 33.1161 126.841 33.5121 125.137 33.5121ZM125.137 29.5161C126.337 29.5161 127.381 29.0721 128.269 28.1841C129.157 27.2721 129.601 25.9281 129.601 24.1521C129.601 22.3761 129.157 21.0441 128.269 20.1561C127.381 19.2441 126.349 18.7881 125.173 18.7881C123.949 18.7881 122.893 19.2441 122.005 20.1561C121.141 21.0441 120.709 22.3761 120.709 24.1521C120.709 25.9281 121.141 27.2721 122.005 28.1841C122.893 29.0721 123.937 29.5161 125.137 29.5161Z" fill="white"/>
<path d="M28.9883 5.35752C31.7483 4.20804 34.8705 3.58046 37.8217 4.31797C39.8533 4.81747 41.6446 6.1676 42.6785 7.98522C41.9159 7.99803 41.1532 8.00016 40.3906 8.00977C39.52 6.74822 38.1902 5.83781 36.7215 5.41516C34.4528 4.7481 32.0389 4.87297 29.7328 5.26254C29.4871 5.31164 29.2382 5.34791 28.9883 5.35752Z" fill="#9437F0"/>
<path d="M20.5332 5.59439C21.0438 5.57198 21.5554 5.55063 22.0681 5.56771C22.1375 6.10456 22.1642 6.64675 22.1386 7.18681C21.6526 7.15052 21.1645 7.16973 20.6795 7.12811C20.6197 6.61794 20.5759 6.10669 20.5332 5.59439Z" fill="#9435F3"/>
<path d="M22.0674 5.56836C22.6388 5.58971 23.2103 5.62279 23.7796 5.67936C23.5606 6.20661 23.4592 6.89395 23.8415 7.3689C23.3887 7.32514 22.9347 7.28992 22.4818 7.24616C22.3675 7.22588 22.2522 7.20667 22.1379 7.18746C22.1635 6.64741 22.1368 6.10522 22.0674 5.56836Z" fill="#8B39F7"/>
<path d="M18.9287 5.74192C19.4617 5.67468 19.9968 5.62665 20.533 5.5957C20.5758 6.108 20.6196 6.61924 20.6794 7.12941C21.1643 7.17103 21.6524 7.15182 22.1384 7.18811C22.2527 7.20732 22.3681 7.22653 22.4824 7.24681C22.1182 7.24468 21.7539 7.24894 21.3908 7.25001C20.7755 7.25641 20.1613 7.27776 19.5504 7.35034C19.4158 7.36742 19.2812 7.38449 19.1466 7.40264C19.0793 6.84871 19.0046 6.29478 18.9287 5.74192Z" fill="#9F31EF"/>
<path d="M17.0918 6.07092C17.6985 5.93537 18.3127 5.82651 18.929 5.74219C19.0048 6.29505 19.0796 6.84898 19.1469 7.40291C18.6673 7.46908 18.1888 7.54273 17.7167 7.64519C17.3289 7.20653 17.2146 6.62378 17.0918 6.07092Z" fill="#A92CE9"/>
<path d="M23.8417 7.36923C23.4593 6.89428 23.5608 6.20694 23.7797 5.67969C24.3074 5.74159 24.834 5.81524 25.3563 5.91343C25.2783 6.46843 25.2367 7.02876 25.2473 7.58909C24.7795 7.51224 24.3127 7.42899 23.8417 7.36923Z" fill="#823EFA"/>
<path d="M25.3567 5.91309C26.3415 6.0988 27.3114 6.35815 28.2577 6.69009C28.0868 7.22481 27.9309 7.76486 27.8412 8.31879C27.6446 8.25155 27.446 8.18644 27.2484 8.12347C26.5915 7.91108 25.926 7.72216 25.2477 7.58875C25.2371 7.02842 25.2787 6.46808 25.3567 5.91309Z" fill="#7643FE"/>
<path d="M15.7112 6.45125C16.1566 6.28368 16.6298 6.19296 17.0912 6.07129C17.2141 6.62415 17.3284 7.2069 17.7161 7.64556C17.5537 7.67971 17.3935 7.71814 17.2333 7.75763C16.9673 7.82487 16.7024 7.89638 16.4397 7.97429C16.0979 7.5463 15.6706 7.201 15.5371 6.66735L15.7112 6.45125Z" fill="#B227E4"/>
<path d="M14.3262 6.92263C14.7566 6.77961 15.2448 6.53199 15.6977 6.46582C15.8979 6.92263 16.0982 7.54487 16.44 7.97286C15.9348 8.13296 15.4285 8.29305 14.9318 8.47769C14.7417 7.95471 14.5387 7.436 14.3262 6.92263Z" fill="#BC22DF"/>
<path d="M28.2584 6.68945C29.3884 7.08969 30.4843 7.58492 31.5279 8.17513C31.2534 8.66289 30.9971 9.16132 30.7482 9.66188C30.0112 9.25631 29.2699 8.85287 28.4837 8.55082C28.2701 8.46971 28.0565 8.39286 27.8418 8.31815C27.9315 7.76422 28.0875 7.22417 28.2584 6.68945Z" fill="#664AFF"/>
<path d="M12.9658 7.50666C13.4144 7.30067 13.8673 7.10322 14.3266 6.92285C14.5392 7.43622 14.7421 7.95493 14.9323 8.47791C14.6407 8.59104 14.3533 8.71378 14.066 8.83866C13.9336 8.89736 13.8022 8.95713 13.6719 9.01903C13.3333 8.57183 13.1196 8.05099 12.969 7.51413L12.9658 7.50666Z" fill="#C41ED9"/>
<path d="M19.5508 7.35033C20.1618 7.27775 20.7759 7.25641 21.3912 7.25C21.5653 8.23725 21.4745 9.23945 21.5439 10.2342C21.6785 11.4797 21.6059 12.7349 21.6144 13.9858C21.5247 13.9858 21.3453 13.9868 21.2555 13.9879C20.902 13.9954 20.5495 14.0242 20.2002 14.0669C20.1564 14.0733 20.0699 14.084 20.0261 14.0893C20.3444 13.705 20.118 13.2088 20.0667 12.7733C19.7377 10.9834 19.7324 9.15727 19.5508 7.35033Z" fill="#E533F3"/>
<path d="M21.3906 7.24891C21.7538 7.24784 22.118 7.24357 22.4823 7.24571C22.9352 7.28947 23.3891 7.32469 23.842 7.36845C23.967 7.5595 24.0642 7.77402 24.0428 8.00883C24.0172 8.77729 23.9093 9.54148 23.8762 10.311C23.7662 11.3922 23.8431 12.4798 23.8228 13.5652C23.8249 13.7744 23.7523 13.9718 23.6796 14.164C23.4211 14.1159 23.1605 14.0711 22.8988 14.0476C22.4727 14.0007 22.0433 13.9857 21.6139 13.9846C21.6053 12.7338 21.678 11.4786 21.5434 10.2331C21.4739 9.23835 21.5647 8.23617 21.3906 7.24891Z" fill="#D539F8"/>
<path d="M17.7172 7.64419C18.1893 7.54173 18.6678 7.46808 19.1474 7.40191C19.282 7.38377 19.4166 7.36669 19.5511 7.34961C19.7327 9.15655 19.7381 10.9827 20.067 12.7726C20.1183 13.208 20.3448 13.7043 20.0265 14.0885C19.7498 14.1238 19.4742 14.1675 19.2008 14.222C19.0053 14.2625 18.812 14.3095 18.6197 14.3586C18.5108 13.8068 18.358 13.2646 18.1711 12.7331C17.9981 12.2453 17.9895 11.7234 17.9393 11.2143C17.887 10.6283 17.6189 10.0904 17.5409 9.50875C17.4523 8.92173 17.37 8.33472 17.2344 7.75624C17.3946 7.71675 17.5548 7.67835 17.7172 7.64419Z" fill="#F12CEE"/>
<path d="M23.843 7.36816C24.3141 7.42793 24.7808 7.51118 25.2487 7.58802C25.223 8.26255 25.1376 8.93389 25.1397 9.60949C25.1408 10.4335 24.9667 11.2478 25.0244 12.0728C25.0703 12.868 24.9656 13.6599 24.8716 14.4486C24.5405 14.3483 24.204 14.2693 23.8665 14.2C23.8195 14.1914 23.7277 14.1733 23.6807 14.1637C23.7533 13.9716 23.8259 13.7741 23.8238 13.5649C23.8441 12.4795 23.7672 11.3919 23.8772 10.3107C23.9103 9.54119 24.0182 8.777 24.0438 8.00854C24.0652 7.77373 23.968 7.55921 23.843 7.36816Z" fill="#C73FFB"/>
<path d="M10.4814 8.91495C11.2751 8.3909 12.1039 7.91596 12.9681 7.51465C13.1187 8.0515 13.3323 8.57235 13.6709 9.01955C12.9114 9.38457 12.1723 9.79228 11.4631 10.2491C11.4043 10.2875 11.3456 10.327 11.2879 10.3665C11.0294 9.87659 10.757 9.39524 10.4814 8.91495Z" fill="#D217D0"/>
<path d="M25.2481 7.58789C25.9264 7.7213 26.5919 7.91022 27.2488 8.12261C27.2498 8.51324 27.2669 8.90494 27.2156 9.29344C27.1622 9.69048 26.9977 10.063 26.9518 10.4621C26.8364 12.0087 26.814 13.5637 26.6164 15.1038C26.2212 14.9128 25.8089 14.7602 25.3945 14.6182C25.2204 14.5585 25.0463 14.5019 24.8711 14.4485C24.9651 13.6598 25.0698 12.8678 25.0238 12.0727C24.9662 11.2477 25.1403 10.4333 25.1392 9.60937C25.1371 8.93377 25.2225 8.26242 25.2481 7.58789Z" fill="#B943FD"/>
<path d="M16.4399 7.9735C16.7026 7.89559 16.9676 7.82408 17.2335 7.75684C17.3692 8.33532 17.4514 8.92233 17.5401 9.50935C17.618 10.091 17.8861 10.6289 17.9385 11.2149C17.9887 11.724 17.9972 12.2459 18.1702 12.7337C18.3572 13.2652 18.5099 13.8074 18.6189 14.3592C18.4138 14.4136 18.2108 14.4766 18.01 14.5417C17.6949 14.6473 17.383 14.7637 17.0765 14.8928C16.928 14.6249 16.8073 14.3442 16.7069 14.055C16.5221 13.5032 16.1451 13.0464 15.9069 12.5191C15.5982 11.8521 15.1218 11.2757 14.8548 10.5895C14.6219 9.99284 14.3549 9.41009 14.0654 8.83908C14.3528 8.71421 14.6401 8.59147 14.9317 8.47833C15.4284 8.29369 15.9347 8.13359 16.4399 7.9735Z" fill="#FF23E7"/>
<path d="M40.3887 8.0099C41.1513 8.00029 41.914 7.99816 42.6766 7.98535C43.1979 8.89042 43.5418 9.88621 43.7629 10.9044C42.9939 10.9012 42.2259 10.9076 41.4568 10.8991C41.3179 9.87127 40.9462 8.88402 40.3887 8.0099Z" fill="#8A40F1"/>
<path d="M27.2485 8.12305C27.4461 8.18602 27.6448 8.25113 27.8413 8.31837C28.056 8.39308 28.2697 8.46993 28.4833 8.55104C28.4203 9.33657 28.2109 10.104 28.2387 10.898C28.0496 11.8896 28.055 12.9078 27.8243 13.894C27.7142 14.465 27.6555 15.0445 27.5636 15.6187C27.3222 15.4746 27.0744 15.3401 26.8256 15.2099C26.7551 15.1736 26.6856 15.1384 26.6162 15.1043C26.8138 13.5642 26.8362 12.0091 26.9516 10.4626C26.9975 10.0634 27.162 9.69092 27.2154 9.29388C27.2667 8.90538 27.2496 8.51368 27.2485 8.12305Z" fill="#AC48FF"/>
<path d="M30.7471 9.66155C30.9959 9.16099 31.2523 8.66256 31.5268 8.1748C32.2916 8.61666 33.035 9.09908 33.7378 9.63487C33.4334 10.0874 33.1482 10.5549 32.9143 11.0469L32.8887 11.1142C32.3546 10.6766 31.7981 10.2678 31.201 9.92091C31.0504 9.83232 30.8988 9.74694 30.7471 9.66155Z" fill="#5750FF"/>
<path d="M28.4831 8.55273C29.2693 8.85478 30.0106 9.25822 30.7476 9.66379C30.8992 9.74917 31.0509 9.83456 31.2015 9.92315C31.1214 10.4867 31.0691 11.0534 31.0509 11.6223C31.0199 12.5306 30.7401 13.4068 30.6899 14.314C30.6675 14.948 30.2979 15.4987 30.2359 16.1242C30.1857 16.6109 30.1302 17.0965 30.0287 17.5757C29.892 17.4316 29.7531 17.2907 29.6121 17.1531C29.1635 16.7219 28.6658 16.3483 28.1509 16.0025C27.9565 15.8723 27.7621 15.7421 27.5635 15.6204C27.6553 15.0462 27.7141 14.4667 27.8241 13.8957C28.0548 12.9095 28.0495 11.8913 28.2385 10.8997C28.2108 10.1057 28.4201 9.33827 28.4831 8.55273Z" fill="#994DFF"/>
<path d="M13.6707 9.01826C13.801 8.95636 13.9324 8.89659 14.0649 8.83789C14.3543 9.4089 14.6214 9.99164 14.8542 10.5883C15.1212 11.2746 15.5976 11.8509 15.9063 12.518C16.1445 13.0452 16.5216 13.502 16.7064 14.0538C16.8068 14.343 16.9275 14.6237 17.0759 14.8916C16.9723 14.9354 16.8708 14.9802 16.7694 15.0272C16.4062 15.1948 16.0516 15.3837 15.7055 15.5843C15.5699 15.6633 15.4363 15.7455 15.305 15.8298C14.9995 15.3111 14.5904 14.865 14.2828 14.3473C14.0115 13.8916 13.5436 13.5831 13.3204 13.0954C13.0149 12.4561 12.828 11.7282 12.2875 11.2319C11.9681 10.9437 11.6541 10.6416 11.4629 10.2478C12.1721 9.79099 12.9113 9.38327 13.6707 9.01826Z" fill="#FF19E0"/>
<path d="M8.45996 10.4564C9.09443 9.89394 9.78017 9.39018 10.4819 8.91309C10.7575 9.39338 11.0299 9.87473 11.2884 10.3646C10.6592 10.8097 10.0333 11.2633 9.45866 11.7777C9.09016 11.3647 8.7601 10.9207 8.45996 10.4564Z" fill="#E20EC4"/>
<path d="M32.9141 11.0468C33.148 10.5548 33.4332 10.0873 33.7376 9.63477C34.7854 10.4342 35.7681 11.3232 36.6365 12.3148C36.189 12.6734 35.8525 13.1419 35.5801 13.6425C35.3921 13.4365 35.2009 13.2348 35.0108 13.0331C34.355 12.3265 33.6415 11.6776 32.9141 11.0468Z" fill="#4A54FF"/>
<path d="M31.2011 9.92286C31.7982 10.2697 32.3547 10.6785 32.8888 11.1161C32.7467 11.8312 32.7798 12.5687 32.6314 13.2827C32.5277 13.7641 32.4636 14.2529 32.4092 14.7417C32.3462 15.4013 31.9958 15.9926 31.9435 16.6543C31.8612 17.5775 31.6487 18.4815 31.4543 19.3856C31.3603 19.2351 31.2631 19.0878 31.1648 18.9416C30.8294 18.4506 30.431 18.0087 30.0283 17.5754C30.1298 17.0962 30.1853 16.6106 30.2355 16.1239C30.2975 15.4984 30.6671 14.9477 30.6895 14.3137C30.7397 13.4065 31.0195 12.5303 31.0505 11.622C31.0687 11.0531 31.121 10.4864 31.2011 9.92286Z" fill="#8452FF"/>
<path d="M11.2877 10.3654C11.3454 10.326 11.4041 10.2865 11.4629 10.248C11.6541 10.6419 11.9681 10.9439 12.2875 11.2321C12.828 11.7284 13.0149 12.4563 13.3204 13.0956C13.5436 13.5834 14.0114 13.8918 14.2828 14.3476C14.5904 14.8652 14.9995 15.3113 15.305 15.83C15.1576 15.925 15.0134 16.0253 14.8702 16.1289C14.5626 16.3498 14.2646 16.5857 13.9762 16.8322C13.7006 17.0692 13.4283 17.3093 13.1804 17.5751C12.7927 17.0126 12.1775 16.6454 11.856 16.0349C11.6626 15.6603 11.213 15.5451 10.9705 15.211C10.6308 14.7574 10.0807 14.5535 9.69835 14.148C9.26683 13.6986 8.76694 13.3144 8.39844 12.8085C8.75092 12.4648 9.09913 12.1158 9.45802 11.7785C10.0327 11.2641 10.6586 10.8105 11.2877 10.3654Z" fill="#FF0ED6"/>
<path d="M6.47168 12.4346C7.07624 11.7205 7.74916 11.0663 8.46054 10.459C8.76068 10.9233 9.09074 11.3673 9.45924 11.7803C9.10035 12.1176 8.75214 12.4666 8.39966 12.8103C8.12408 13.0846 7.85598 13.3653 7.60497 13.6609C7.27705 13.2094 6.91603 12.7772 6.47168 12.4346Z" fill="#F306B8"/>
<path d="M41.457 10.8984C42.2261 10.907 42.9941 10.9006 43.7631 10.9038C43.9501 11.8814 44.0141 12.8858 43.9971 13.8794C43.1554 13.8986 42.3148 13.8826 41.4741 13.8751C41.5895 12.8868 41.5959 11.8846 41.457 10.8984Z" fill="#8345F3"/>
<path d="M32.8886 11.1161L32.9142 11.0488C33.6416 11.6796 34.3551 12.3285 35.011 13.0351C34.9522 13.653 34.5891 14.1963 34.5816 14.8239C34.5527 15.6521 34.29 16.4504 34.2601 17.2787C34.2387 17.8785 33.8649 18.3983 33.8563 19.0002C33.8339 19.5499 33.8243 20.0995 33.7719 20.6471C33.6523 20.6545 33.5338 20.661 33.4152 20.6674C33.193 20.6695 32.9719 20.6738 32.7508 20.6727C32.565 20.6706 32.3802 20.6684 32.1954 20.6652C31.9316 20.249 31.7062 19.8092 31.4541 19.3855C31.6485 18.4815 31.8611 17.5775 31.9433 16.6543C31.9957 15.9926 32.346 15.4013 32.409 14.7417C32.4635 14.2529 32.5276 13.764 32.6312 13.2827C32.7797 12.5687 32.7465 11.8312 32.8886 11.1161Z" fill="#7155FF"/>
<path d="M35.5811 13.6441C35.8534 13.1436 36.1899 12.675 36.6374 12.3164C37.6361 13.4413 38.5077 14.6773 39.2362 15.9933C38.7812 16.3818 38.3422 16.7937 37.995 17.2836C37.6287 16.5803 37.274 15.8663 36.7912 15.2344C36.4067 14.6901 36.0318 14.1362 35.5811 13.6441Z" fill="#3858FF"/>
<path d="M6.47163 12.4336C6.91597 12.7762 7.277 13.2085 7.60492 13.6599C7.26525 14.073 6.94375 14.4999 6.62224 14.9257C6.2548 14.4081 5.60538 14.3419 5.02539 14.2822C5.474 13.6407 5.94931 13.0163 6.47163 12.4336Z" fill="#FF03AC"/>
<path d="M7.60339 13.6612C7.8544 13.3655 8.1225 13.0848 8.39808 12.8105C8.76658 13.3164 9.26647 13.7007 9.69799 14.15C10.0804 14.5556 10.6305 14.7594 10.9701 15.213C11.2126 15.5471 11.6623 15.6624 11.8556 16.037C12.1771 16.6475 12.7924 17.0146 13.1801 17.5771L13.1075 17.655C12.6353 18.2047 12.1248 18.7319 11.7627 19.3638C11.736 19.4097 11.6815 19.5036 11.6548 19.5495C11.0182 19.3264 10.3581 19.193 9.70119 19.0468C8.76764 18.6818 7.75826 18.6316 6.78092 18.4608C6.07382 18.4747 5.37419 18.3381 4.66602 18.3861C4.7237 18.2548 4.78458 18.1257 4.84547 17.9976C5.09968 17.4693 5.35604 16.9421 5.65084 16.4351C5.95526 15.9207 6.26501 15.4083 6.6207 14.927C6.94221 14.5011 7.26372 14.0742 7.60339 13.6612Z" fill="#FF03C8"/>
<path d="M35.0115 13.0332C35.2016 13.2349 35.3928 13.4366 35.5808 13.6426C36.0316 14.1347 36.4065 14.6886 36.791 15.2329C36.7557 15.6385 36.7493 16.0462 36.7226 16.4528C36.697 17.011 36.3274 17.486 36.3103 18.0485C36.2697 18.8895 36.196 19.7369 35.9514 20.547C35.2273 20.626 34.4977 20.6068 33.7725 20.6452C33.8248 20.0977 33.8344 19.548 33.8568 18.9984C33.8654 18.3964 34.2392 17.8766 34.2606 17.2768C34.2905 16.4486 34.5533 15.6502 34.5821 14.822C34.5896 14.1944 34.9527 13.6512 35.0115 13.0332Z" fill="#5B58FF"/>
<path d="M41.4752 13.876C42.3158 13.8835 43.1565 13.8995 43.9981 13.8803C43.9725 14.7725 43.8892 15.6626 43.7311 16.541C42.8317 16.5474 41.832 16.587 40.9326 16.5528C40.9727 16.3927 41.0287 16.2529 41.0608 16.1152C41.237 15.3766 41.3545 14.6263 41.4752 13.876Z" fill="#7C4BF4"/>
<path d="M20.2002 14.0682C20.5492 14.0255 20.9014 13.9967 21.2547 13.9893C21.2867 14.5475 21.3561 15.1035 21.4746 15.651C21.1522 15.6574 20.831 15.6788 20.5108 15.7119C20.3902 15.1676 20.2909 14.619 20.2002 14.0682Z" fill="#9F32EA"/>
<path d="M21.2549 13.9865C21.3446 13.9854 21.5241 13.9844 21.6138 13.9844C22.0432 13.9854 22.4726 14.0004 22.8987 14.0473C22.7684 14.0794 22.6381 14.1125 22.5099 14.1487C22.5388 14.6632 22.5698 15.1787 22.5772 15.6942C22.2098 15.66 21.8424 15.6451 21.4749 15.6483C21.3564 15.1008 21.2869 14.5447 21.2549 13.9865Z" fill="#9436EF"/>
<path d="M19.2003 14.2222C19.4737 14.1678 19.7493 14.124 20.0259 14.0888C20.0697 14.0835 20.1563 14.0728 20.2001 14.0664C20.2908 14.6171 20.3902 15.1657 20.5109 15.71C20.1691 15.7463 19.8294 15.8008 19.494 15.8701C19.3295 15.3354 19.149 14.79 19.2003 14.2222Z" fill="#AA2CE4"/>
<path d="M22.5098 14.1512C22.6379 14.1149 22.7683 14.0818 22.8986 14.0498C23.1603 14.0733 23.4209 14.1181 23.6794 14.1661C23.7264 14.1758 23.8182 14.1939 23.8652 14.2024C23.8054 14.7574 23.7499 15.3124 23.6965 15.8674C23.3258 15.7927 22.952 15.734 22.5771 15.6967C22.5696 15.1811 22.5386 14.6656 22.5098 14.1512Z" fill="#893BF4"/>
<path d="M18.6196 14.3593C18.8118 14.3102 19.0052 14.2632 19.2006 14.2227C19.1494 14.7905 19.3299 15.3359 19.4944 15.8706C19.1633 15.9421 18.8364 16.0296 18.5138 16.1321C18.3387 15.6048 18.0182 15.1128 18.0107 14.5418C18.2116 14.4767 18.4145 14.4137 18.6196 14.3593Z" fill="#B527DE"/>
<path d="M23.866 14.1992C24.2036 14.2686 24.54 14.3476 24.8711 14.4479C25.0463 14.5013 25.2204 14.5578 25.3945 14.6176C25.3048 15.1673 25.1734 15.7094 25.0164 16.2442C24.5849 16.0905 24.1448 15.9603 23.6973 15.8642C23.7507 15.3092 23.8062 14.7542 23.866 14.1992Z" fill="#7C41F8"/>
<path d="M5.02445 14.2832C5.60444 14.343 6.25387 14.4091 6.6213 14.9268C6.26561 15.4081 5.95585 15.9204 5.65144 16.4349C5.43247 16.2385 5.22632 16.0154 4.95502 15.8927C4.67837 15.7924 4.37823 15.802 4.08984 15.7774C4.3793 15.2662 4.6944 14.7688 5.02445 14.2832Z" fill="#FF01A2"/>
<path d="M17.0751 14.8922C17.3817 14.763 17.6936 14.6467 18.0086 14.541C18.0161 15.112 18.3366 15.604 18.5117 16.1313C18.1507 16.2487 17.7993 16.3939 17.4532 16.5497C17.246 16.0331 17.0206 15.524 16.7686 15.0277C16.87 14.9807 16.9715 14.9359 17.0751 14.8922Z" fill="#C121D7"/>
<path d="M25.3938 14.6182C25.8082 14.7601 26.2205 14.9127 26.6157 15.1038C26.6851 15.1379 26.7546 15.1732 26.825 15.2094C26.5847 15.7175 26.4031 16.2501 26.2568 16.7923C25.8552 16.5831 25.4418 16.3984 25.0156 16.2447C25.1726 15.71 25.304 15.1678 25.3938 14.6182Z" fill="#7046FC"/>
<path d="M15.7061 15.5835C16.0521 15.3828 16.4068 15.1939 16.7699 15.0264C17.022 15.5227 17.2474 16.0318 17.4546 16.5483C17.1651 16.6796 16.8799 16.8216 16.6044 16.9806C16.2764 16.5345 15.971 16.0713 15.7061 15.5835Z" fill="#CC1BCF"/>
<path d="M26.2568 16.7947C26.4032 16.2525 26.5848 15.72 26.8251 15.2119C27.074 15.3421 27.3218 15.4766 27.5632 15.6207C27.7618 15.7424 27.9562 15.8726 28.1506 16.0028C27.9199 16.5162 27.6871 17.0285 27.4596 17.5429C27.075 17.2686 26.6755 17.0135 26.2568 16.7947Z" fill="#644BFF"/>
<path d="M36.7913 15.2344C37.2741 15.8662 37.6287 16.5802 37.9951 17.2836C38.3689 17.8621 37.9919 18.4939 37.9801 19.1076C37.963 19.6028 37.9342 20.1002 37.8028 20.5805C37.0359 20.6787 36.2615 20.6648 35.4914 20.7118C34.7992 20.7374 34.105 20.7513 33.416 20.6669C33.5346 20.6605 33.6531 20.6541 33.7728 20.6467C34.498 20.6082 35.2276 20.6275 35.9517 20.5485C36.1963 19.7384 36.27 18.891 36.3106 18.0499C36.3277 17.4875 36.6973 17.0125 36.7229 16.4543C36.7496 16.0477 36.7561 15.64 36.7913 15.2344Z" fill="#485BFF"/>
<path d="M15.3058 15.8304C15.4372 15.7461 15.5707 15.6639 15.7064 15.585C15.9713 16.0727 16.2767 16.5359 16.6047 16.9821C16.312 17.1539 16.0268 17.3364 15.7512 17.5339C15.4692 17.0578 15.1777 16.5893 14.8711 16.1293C15.0142 16.0258 15.1584 15.9254 15.3058 15.8304Z" fill="#D717C7"/>
<path d="M3.23242 17.4754C3.49411 16.8969 3.78037 16.3313 4.09013 15.7773C4.37853 15.8019 4.67867 15.7923 4.95531 15.8926C5.22662 16.0154 5.43276 16.2384 5.65173 16.4348C5.35693 16.9418 5.10058 17.469 4.84636 17.9973C4.33579 17.7487 3.81134 17.5021 3.23242 17.4754Z" fill="#FF0098"/>
<path d="M28.151 16C28.6659 16.3458 29.1636 16.7194 29.6122 17.1506C29.3185 17.6468 29.0312 18.1463 28.7396 18.6437C28.3444 18.2413 27.9203 17.8667 27.46 17.5401C27.6875 17.0257 27.9203 16.5134 28.151 16Z" fill="#594FFF"/>
<path d="M37.9945 17.2816C38.3417 16.7917 38.7807 16.3797 39.2357 15.9912C39.6437 16.7874 40.0891 17.5826 40.338 18.4439C40.2857 18.5954 40.228 18.7459 40.1703 18.8964C39.7164 20.0726 39.2005 21.2242 38.6012 22.3342C37.4284 22.3374 36.2567 22.3331 35.085 22.3374C35.415 21.8592 35.4246 21.2658 35.4909 20.7098C36.261 20.6628 37.0354 20.6767 37.8023 20.5785C37.9337 20.0982 37.9625 19.6008 37.9796 19.1056C37.9913 18.4919 38.3684 17.8601 37.9945 17.2816Z" fill="#2E5CFF"/>
<path d="M13.9775 16.8342C14.2659 16.5877 14.5639 16.3518 14.8716 16.1309C15.1781 16.5909 15.4697 17.0594 15.7517 17.5354C15.4932 17.7222 15.2433 17.9197 15.004 18.1299C14.6451 17.7115 14.3087 17.275 13.9775 16.8342Z" fill="#E010BF"/>
<path d="M40.9315 16.5524C40.9625 16.5471 41.002 16.5396 41.033 16.5332C41.9323 16.5674 42.8306 16.5471 43.73 16.5407C43.5837 17.3347 43.4064 18.1224 43.1927 18.9015C42.1855 18.9197 41.1772 18.9208 40.1699 18.8983C40.2276 18.7479 40.2853 18.5974 40.3376 18.4458C40.5534 17.8246 40.7713 17.1928 40.9315 16.5524Z" fill="#764FF5"/>
<path d="M13.181 17.5739C13.4288 17.3081 13.7012 17.068 13.9768 16.8311C14.3079 17.2719 14.6444 17.7084 15.0033 18.1268C14.7181 18.3829 14.4478 18.654 14.1851 18.9326C13.8347 18.4982 13.4577 18.0862 13.1084 17.6518L13.181 17.5739Z" fill="#EA0CB6"/>
<path d="M28.7402 18.6426C29.0318 18.1452 29.3192 17.6457 29.6129 17.1494C29.7539 17.2871 29.8927 17.428 30.0295 17.5721C30.4322 18.0054 30.8306 18.4473 31.166 18.9382C30.7323 19.3908 30.4514 19.9554 30.2014 20.5232C29.787 19.8454 29.3042 19.204 28.7402 18.6426Z" fill="#4D53FF"/>
<path d="M3.23281 17.4746C3.81174 17.5013 4.33619 17.7478 4.84675 17.9965C4.78587 18.1246 4.72498 18.2537 4.6673 18.385C4.4697 18.8215 4.30307 19.2719 4.14605 19.7245C3.65151 19.4278 3.06831 19.4 2.51074 19.3349C2.7233 18.7041 2.96684 18.0851 3.23281 17.4746Z" fill="#FF008E"/>
<path d="M11.7627 19.3621C12.1248 18.7302 12.6354 18.203 13.1075 17.6533C13.4568 18.0877 13.8338 18.4997 14.1841 18.9341C13.7911 19.3599 13.445 19.8263 13.1331 20.3141C12.7101 19.9491 12.2519 19.63 11.7627 19.3621Z" fill="#F806AA"/>
<path d="M4.66674 18.3833C5.37491 18.3353 6.07454 18.4719 6.78165 18.458C7.75899 18.6288 8.76836 18.679 9.70191 19.044C10.3588 19.1902 11.0189 19.3236 11.6555 19.5467C11.192 20.3525 10.7401 21.1765 10.471 22.0709C10.4229 22.2224 10.378 22.374 10.3374 22.5277C9.69978 22.3537 9.04181 22.453 8.39345 22.4807C7.88287 22.5117 7.39581 22.7123 6.87883 22.6984C6.33408 22.6888 5.80643 22.8308 5.29159 22.9951C4.59944 23.1926 3.97245 23.5726 3.26855 23.7359C3.36682 23.0357 3.44586 22.3324 3.61569 21.645C3.75668 20.995 3.92758 20.3504 4.14548 19.7228C4.3025 19.2703 4.46913 18.8198 4.66674 18.3833Z" fill="#FF00B9"/>
<path d="M40.1705 18.8984C41.1778 18.9209 42.1861 18.9198 43.1933 18.9016C42.8206 20.2614 42.3185 21.5806 41.7578 22.872H41.7407C40.6074 22.8432 39.473 22.8912 38.3408 22.8229C38.4273 22.6607 38.5149 22.4984 38.6014 22.3362C39.2007 21.2262 39.7166 20.0746 40.1705 18.8984Z" fill="#6C55F6"/>
<path d="M30.2012 20.5254C30.4511 19.9576 30.732 19.393 31.1657 18.9404C31.264 19.0866 31.3612 19.2339 31.4552 19.3844C31.7072 19.8081 31.9326 20.2479 32.1964 20.6641C32.3812 20.6673 32.566 20.6695 32.7519 20.6716C32.3737 21.1988 32.0266 21.7485 31.7532 22.3377C31.5118 22.3366 31.2714 22.3323 31.0322 22.3248C30.8292 21.6941 30.5387 21.0953 30.2012 20.5254Z" fill="#4056FF"/>
<path d="M2.51081 19.335C3.06837 19.4001 3.65157 19.4278 4.14612 19.7245C3.92822 20.3521 3.75732 20.9967 3.61633 21.6467C3.28307 21.112 2.54393 21.2433 2.00879 21.1216C2.14765 20.5186 2.31748 19.923 2.51081 19.335Z" fill="#FF0084"/>
<path d="M11.6562 19.549C11.6829 19.5031 11.7374 19.4092 11.7641 19.3633C12.2533 19.6312 12.7115 19.9503 13.1345 20.3153C12.6763 21.0379 12.3206 21.8245 12.0525 22.6356C11.5441 22.3998 11.0132 22.2162 10.4717 22.0732C10.7408 21.1788 11.1927 20.3548 11.6562 19.549Z" fill="#FF0395"/>
<path d="M32.7516 20.6723C32.9727 20.6734 33.1938 20.6691 33.416 20.667C34.1049 20.7513 34.7992 20.7374 35.4914 20.7118C35.4252 21.2679 35.4155 21.8613 35.0855 22.3395C33.9746 22.3384 32.8638 22.3352 31.7529 22.3384C32.0264 21.7492 32.3735 21.1996 32.7516 20.6723Z" fill="#375AFF"/>
<path d="M2.0094 21.1221C2.54453 21.2437 3.28368 21.1125 3.61694 21.6472C3.44711 22.3345 3.36807 23.0379 3.2698 23.738C3.2666 23.7604 3.26125 23.8053 3.25912 23.8277C2.70797 23.7434 2.15574 23.6719 1.60352 23.6014C1.68577 22.7668 1.82568 21.9396 2.0094 21.1221Z" fill="#FF0079"/>
<path d="M10.4718 22.0723C11.0133 22.2153 11.5442 22.3989 12.0526 22.6347C11.9159 23.0681 11.8101 23.5121 11.7332 23.9593C11.1981 23.8013 10.663 23.6476 10.1289 23.4854C10.1887 23.1641 10.256 22.845 10.3383 22.5291C10.3788 22.3754 10.4237 22.2238 10.4718 22.0723Z" fill="#FF0283"/>
<path d="M8.39333 22.483C9.04168 22.4553 9.69965 22.356 10.3373 22.53C10.2551 22.8459 10.1878 23.165 10.128 23.4863C10.0554 23.9015 9.98805 24.3188 9.93892 24.7383C9.88445 25.1332 9.8289 25.527 9.78938 25.924C9.1923 26.2698 8.51617 26.4491 7.92977 26.8152C7.44057 27.1162 6.91291 27.3457 6.43439 27.6637C5.90033 28.0138 5.22954 28.1803 4.83433 28.7161C4.52137 29.1601 4.09625 29.4995 3.63696 29.7823C3.51519 29.2167 3.40197 28.6499 3.33041 28.0768C3.23962 27.3339 3.17233 26.5879 3.16699 25.8397C3.17233 25.1684 3.18301 24.4949 3.25778 23.8279C3.25992 23.8055 3.26526 23.7606 3.26846 23.7382C3.97236 23.5749 4.59935 23.195 5.2915 22.9975C5.80634 22.8331 6.33399 22.6912 6.87874 22.7008C7.39571 22.7147 7.88276 22.514 8.39333 22.483Z" fill="#FF00A9"/>
<path d="M36.3994 26.0125C37.0916 24.9772 37.7442 23.9142 38.3402 22.8213C39.4724 22.8896 40.6068 22.8416 41.7401 22.8704C41.269 23.9761 40.7179 25.0466 40.1304 26.0947C38.8882 26.0168 37.6417 26.1235 36.3994 26.0125Z" fill="#615DF7"/>
<path d="M10.1282 23.4863C10.6623 23.6486 11.1974 23.8022 11.7326 23.9602C11.6482 24.4746 11.6001 24.9955 11.5905 25.5163C11.0404 25.447 10.486 25.4192 9.93168 25.4149C9.93168 25.1887 9.93061 24.9635 9.93916 24.7383C9.98829 24.3188 10.0556 23.9015 10.1282 23.4863Z" fill="#FF0275"/>
<path d="M1.51742 25.7587C1.5046 25.0372 1.52276 24.3167 1.6018 23.6006C2.15402 23.671 2.70625 23.7425 3.2574 23.8269C3.18263 24.4939 3.17195 25.1674 3.16661 25.8387C2.61546 25.8601 2.06323 25.8344 1.51742 25.7587Z" fill="#FF006D"/>
<path d="M9.78916 25.9241C9.82868 25.527 9.88422 25.1332 9.9387 24.7383C9.93015 24.9635 9.93122 25.1887 9.93122 25.415C9.92161 26.2261 9.9622 27.0405 10.1075 27.8399C10.1384 27.9893 10.1726 28.1387 10.2089 28.2871C9.51785 28.7407 8.69646 29.0342 8.15278 29.682C7.59522 30.3694 6.7546 30.713 6.06138 31.236C5.4643 31.5904 4.9783 32.0867 4.52007 32.6011C4.48803 32.5189 4.42501 32.3556 4.39403 32.2734C4.1537 31.6299 3.92833 30.9788 3.75956 30.3128C3.71577 30.1367 3.67518 29.9585 3.63672 29.7824C4.09602 29.4995 4.52113 29.1601 4.83409 28.7161C5.2293 28.1803 5.90008 28.0138 6.43415 27.6638C6.91267 27.3457 7.44033 27.1162 7.92953 26.8152C8.51593 26.4492 9.19208 26.2699 9.78916 25.9241Z" fill="#FF059A"/>
<path d="M9.93101 25.4131C10.4854 25.4174 11.0397 25.4451 11.5898 25.5145C11.5813 26.0833 11.6261 26.6522 11.7095 27.2158C11.1786 27.4015 10.4512 27.3193 10.1073 27.838C9.96199 27.0386 9.9214 26.2242 9.93101 25.4131Z" fill="#FF0566"/>
<path d="M1.51791 25.7578C2.06372 25.8336 2.61595 25.8592 3.1671 25.8379C3.17244 26.586 3.23973 27.3321 3.33052 28.0749C2.76762 28.0696 2.20364 28.0717 1.64074 28.0803C1.55209 27.3097 1.49761 26.5337 1.51791 25.7578Z" fill="#FF0062"/>
<path d="M34.2546 28.9648C35.0055 28.0074 35.7275 27.0276 36.4005 26.0137C37.6427 26.1247 38.8892 26.0179 40.1314 26.0959C39.2428 27.6317 38.2804 29.1281 37.2315 30.5614C35.8247 30.4665 34.4137 30.5444 33.0049 30.5102C33.4257 29.999 33.8519 29.4909 34.2546 28.9648Z" fill="#5564F9"/>
<path d="M10.1084 27.8381C10.4523 27.3194 11.1797 27.4015 11.7106 27.2158C11.7832 27.678 11.8868 28.1348 12.0236 28.583C11.5333 28.8691 10.9544 29.0121 10.5495 29.4294C10.4256 29.0516 10.3071 28.6716 10.2099 28.2853C10.1735 28.1369 10.1394 27.9875 10.1084 27.8381Z" fill="#FF0C58"/>
<path d="M1.64063 28.0815C2.20353 28.0729 2.76751 28.0708 3.3304 28.0761C3.40197 28.6493 3.5152 29.216 3.63696 29.7817C3.67541 29.9578 3.716 30.136 3.75979 30.3121C3.20329 30.3826 2.64573 30.452 2.08924 30.5224C1.88843 29.7198 1.74317 28.9033 1.64063 28.0815Z" fill="#FF0158"/>
<path d="M10.2094 28.2852C10.3066 28.6715 10.4251 29.0515 10.549 29.4293C10.6761 29.8082 10.8161 30.1828 10.9848 30.5457C11.0489 30.6813 11.1162 30.8168 11.1856 30.9513C10.3365 31.8307 9.44672 32.6696 8.64563 33.5929C8.21197 34.0507 7.71849 34.4563 7.35853 34.9793C7.08188 35.3859 6.7732 35.7701 6.42499 36.1181C6.21777 35.8118 6.01376 35.5033 5.82256 35.1874C5.55232 34.7381 5.29597 34.2802 5.06312 33.8106C4.86872 33.4125 4.68287 33.0101 4.52051 32.5992C4.97874 32.0847 5.46474 31.5885 6.06182 31.2341C6.75504 30.7111 7.59565 30.3675 8.15322 29.6801C8.6969 29.0323 9.51828 28.7388 10.2094 28.2852Z" fill="#FF158F"/>
<path d="M10.5488 29.4313C10.9536 29.014 11.5326 28.871 12.0228 28.585C12.1467 28.9916 12.3006 29.3876 12.4768 29.7739C11.9833 30.0386 11.4781 30.283 10.9846 30.5477C10.8159 30.1848 10.6759 29.8102 10.5488 29.4313Z" fill="#FF164D"/>
<path d="M30.8956 29.3546C30.9683 29.2052 31.0142 28.9597 31.2278 28.9704C32.2361 28.9544 33.2455 28.9778 34.2538 28.9629C33.8511 29.4891 33.425 29.9971 33.0041 30.5083C32.5139 31.089 32.0097 31.6557 31.4959 32.215C30.9405 32.8383 30.3445 33.4231 29.7602 34.0187C29.4697 33.5277 29.1524 33.0539 28.8096 32.5992C29.7015 31.6621 30.4267 30.5617 30.8956 29.3546Z" fill="#FFD200"/>
<path d="M40.3009 28.9657C40.678 28.9946 41.0742 28.9017 41.4374 29.0362C41.1116 30.8218 40.6021 32.5882 39.7903 34.2169C38.9284 36.1273 37.7022 37.8596 36.2858 39.3997C35.9451 38.2545 35.1354 37.3579 34.3643 36.4806C36.5689 34.1646 38.5566 31.6447 40.3009 28.9657Z" fill="#FFDA00"/>
<path d="M12.4766 29.7715C12.6346 30.1226 12.813 30.4652 13.0106 30.7961C12.5609 31.1259 12.0995 31.4386 11.6317 31.7417C11.4746 31.4824 11.3251 31.2187 11.1852 30.9509C11.1158 30.8164 11.0485 30.6808 10.9844 30.5453C11.4779 30.2806 11.9831 30.0362 12.4766 29.7715Z" fill="#FF2044"/>
<path d="M2.08887 30.5228C2.64537 30.4523 3.20293 30.3829 3.75942 30.3125C3.92818 30.9785 4.15356 31.6295 4.39389 32.2731C3.87264 32.4738 3.37062 32.7171 2.85792 32.9381C2.55778 32.1483 2.29074 31.3446 2.08887 30.5228Z" fill="#FF054D"/>
<path d="M31.4971 32.2174C32.0108 31.6581 32.515 31.0914 33.0053 30.5107C34.4141 30.5449 35.8251 30.467 37.2319 30.562C36.7961 31.149 36.3496 31.7275 35.8946 32.2995L35.8753 32.2974C34.4184 32.1747 32.9551 32.3145 31.4971 32.2174Z" fill="#4869FA"/>
<path d="M11.6318 31.7435C12.0997 31.4404 12.5611 31.1277 13.0108 30.7979C13.2116 31.1298 13.4284 31.4521 13.6656 31.7584C13.2319 32.1224 12.8677 32.5557 12.513 32.9944L12.4703 32.941C12.1638 32.561 11.8871 32.1587 11.6318 31.7435Z" fill="#FF2A3B"/>
<path d="M11.1864 30.9512C11.3264 31.2191 11.4759 31.4827 11.6329 31.742C11.8882 32.1572 12.1649 32.5596 12.4714 32.9396C11.7835 33.8414 10.9589 34.6291 10.208 35.4787C9.894 35.8832 9.70174 36.3795 9.30332 36.7167C8.82266 37.1319 8.35375 37.5695 8.01729 38.1138C7.97991 38.0733 7.9062 37.9911 7.86882 37.9495C7.48002 37.5119 7.10404 37.0625 6.75583 36.5919C6.64261 36.436 6.53366 36.277 6.42578 36.118C6.77399 35.77 7.08268 35.3858 7.35932 34.9792C7.71928 34.4562 8.21276 34.0506 8.64642 33.5927C9.44752 32.6695 10.3373 31.8306 11.1864 30.9512Z" fill="#FF2882"/>
<path d="M12.5137 32.9947C12.8683 32.5561 13.2325 32.1227 13.6662 31.7588C13.9332 32.0961 14.212 32.4269 14.5154 32.7322C14.1351 33.1367 13.7185 33.5049 13.3137 33.8838C13.0285 33.6042 12.7668 33.3032 12.5137 32.9947Z" fill="#FF3633"/>
<path d="M2.85938 32.9374C3.37208 32.7165 3.8741 32.4731 4.39535 32.2725C4.42633 32.3546 4.48935 32.5179 4.52139 32.6001C4.68375 33.011 4.8696 33.4134 5.06399 33.8115C4.61538 34.1466 4.15288 34.4636 3.66795 34.7465C3.37101 34.1563 3.09971 33.5532 2.85938 32.9374Z" fill="#FF0E44"/>
<path d="M29.7601 34.0205C30.3443 33.425 30.9404 32.8401 31.4958 32.2168C32.9538 32.3139 34.4171 32.1741 35.874 32.2968C35.3026 33.0397 34.6788 33.742 34.0529 34.44L34.0369 34.4389C32.5052 34.3322 30.966 34.4912 29.4375 34.3418C29.5454 34.234 29.6522 34.1273 29.7601 34.0205Z" fill="#406DFB"/>
<path d="M27.2813 33.8953C27.8292 33.5122 28.3462 33.081 28.8108 32.5996C29.1537 33.0543 29.4709 33.5282 29.7615 34.0191C29.6536 34.1258 29.5468 34.2326 29.4389 34.3404C29.0009 34.7673 28.5673 35.2006 28.1058 35.6041C27.8313 35.0341 27.5878 34.4492 27.2813 33.8953Z" fill="#FFC200"/>
<path d="M13.3145 33.8811C13.7193 33.5022 14.1358 33.134 14.5161 32.7295C15.1335 33.3347 15.8203 33.8704 16.568 34.3048C16.1781 34.7136 15.8897 35.2035 15.6953 35.7329C15.6601 35.7126 15.5917 35.672 15.5565 35.6518C15.1121 35.3849 14.6945 35.0754 14.2907 34.751C13.9852 34.5001 13.6883 34.2376 13.401 33.9654L13.3145 33.8811Z" fill="#FF4924"/>
<path d="M12.4697 32.9404L12.5125 32.9938C12.7656 33.3023 13.0273 33.6032 13.3125 33.8829L13.399 33.9672C13.0113 34.5019 12.5135 34.9459 12.1322 35.4849C11.7584 35.9993 11.4123 36.534 11.0117 37.0282C10.3837 37.77 10.0248 38.722 9.2397 39.3304C9.18736 39.2813 9.08268 39.182 9.02928 39.1329C8.68214 38.8031 8.33927 38.468 8.01562 38.1147C8.35208 37.5704 8.82099 37.1328 9.30166 36.7176C9.70007 36.3803 9.89234 35.884 10.2064 35.4795C10.9573 34.63 11.7818 33.8423 12.4697 32.9404Z" fill="#FF3679"/>
<path d="M3.66699 34.7455C4.15192 34.4627 4.61442 34.1457 5.06304 33.8105C5.29589 34.2802 5.55224 34.738 5.82248 35.1874C5.41232 35.5705 4.9637 35.911 4.48625 36.2056C4.19785 35.7274 3.91907 35.2429 3.66699 34.7455Z" fill="#FF173E"/>
<path d="M13.3985 33.9688C13.6859 34.2409 13.9828 34.5035 14.2883 34.7543C13.6303 35.3808 13.2746 36.2282 12.7502 36.9551C12.543 37.255 12.4415 37.6072 12.3133 37.9444C12.104 38.5016 11.6724 38.9306 11.4022 39.4557C11.2035 39.8389 11.0423 40.2402 10.8457 40.6244C10.6577 40.4889 10.4719 40.3512 10.2892 40.2103C9.92927 39.9296 9.57465 39.6404 9.23926 39.3319C10.0243 38.7236 10.3832 37.7715 11.0113 37.0298C11.4118 36.5356 11.7579 36.0009 12.1318 35.4865C12.5131 34.9475 13.0108 34.5035 13.3985 33.9688Z" fill="#FF4271"/>
<path d="M24.4961 35.2391C25.4852 34.935 26.4273 34.4814 27.2807 33.8965C27.5873 34.4504 27.8308 35.0353 28.1053 35.6052C27.5146 36.1506 26.9058 36.6757 26.2895 37.1923C26.2275 36.9757 26.1667 36.7601 26.1068 36.5445C25.6764 36.6704 25.247 36.7995 24.8144 36.9159C24.7428 36.3502 24.6371 35.7909 24.4961 35.2391Z" fill="#FFB400"/>
<path d="M0.271484 36.6347C0.466804 35.7435 0.681324 34.8481 1.0346 34.0049C0.951354 34.8769 0.840354 35.7457 0.807264 36.6219C0.627954 36.6262 0.449724 36.6294 0.271484 36.6347Z" fill="#3073FD"/>
<path d="M28.1059 35.6065C28.5674 35.203 29.001 34.7697 29.439 34.3428C30.9674 34.4922 32.5066 34.3332 34.0383 34.4399C33.8845 34.616 33.735 34.7953 33.5726 34.9639C32.7769 35.7751 31.9726 36.5766 31.1683 37.3792C30.9952 37.5511 30.8104 37.708 30.6267 37.8659C28.9594 37.7421 27.2824 37.9172 25.6172 37.7571C25.8415 37.5692 26.0679 37.3835 26.2901 37.1935C26.9064 36.677 27.5152 36.1519 28.1059 35.6065Z" fill="#3073FD"/>
<path d="M15.6934 35.7327C15.8878 35.2034 16.1762 34.7135 16.566 34.3047C16.7914 34.4338 17.02 34.5566 17.2539 34.6697C17.0413 35.1841 16.817 35.6932 16.5767 36.1949C16.2766 36.0508 15.9828 35.895 15.6934 35.7327Z" fill="#FF5C16"/>
<path d="M17.2553 34.6719C17.564 34.8202 17.8802 34.9526 18.2017 35.0732C17.9496 35.5673 17.7349 36.0786 17.5501 36.6016C17.2959 36.5066 17.0438 36.4062 16.7971 36.2974C16.7426 36.2728 16.6326 36.2227 16.5781 36.1971C16.8185 35.6954 17.0428 35.1863 17.2553 34.6719Z" fill="#FF660C"/>
<path d="M14.2902 34.752C14.694 35.0764 15.1116 35.3859 15.556 35.6528C15.0176 36.655 14.4227 37.6273 13.9388 38.6583C13.785 39.0457 13.6814 39.4534 13.4795 39.8216C13.1463 40.4375 12.9241 41.1109 12.5268 41.6937C12.1593 41.476 11.7897 41.2604 11.433 41.0277C11.2343 40.8964 11.0399 40.7598 10.8477 40.6221C11.0442 40.2379 11.2055 39.8366 11.4042 39.4534C11.6744 38.9283 12.1059 38.4993 12.3153 37.9421C12.4434 37.6049 12.5449 37.2526 12.7521 36.9527C13.2766 36.2259 13.6323 35.3785 14.2902 34.752Z" fill="#FF4F69"/>
<path d="M18.2014 35.0723C18.5838 35.21 18.9736 35.3263 19.371 35.4149C19.2513 35.9581 19.1338 36.5025 19.0302 37.0489C18.9875 37.0393 18.8999 37.019 18.8561 37.0094C18.4118 36.9027 17.9792 36.7554 17.5498 36.6006C17.7346 36.0777 17.9493 35.5664 18.2014 35.0723Z" fill="#FF7200"/>
<path d="M4.48633 36.2047C4.96378 35.9102 5.4124 35.5697 5.82256 35.1865C6.01376 35.5024 6.21777 35.8109 6.42499 36.1172C6.53287 36.2762 6.64182 36.4353 6.75504 36.5911C6.32992 36.9497 5.91335 37.319 5.51067 37.7032C5.15178 37.2165 4.80784 36.717 4.48633 36.2047Z" fill="#FF2037"/>
<path d="M23.1895 35.5349C23.6317 35.4666 24.0675 35.3641 24.4958 35.2393C24.6368 35.7911 24.7425 36.3503 24.8141 36.916C24.5193 36.9928 24.2255 37.0772 23.9286 37.1455C23.7257 37.186 23.5206 37.218 23.3155 37.2415C23.2375 36.6758 23.1959 36.1059 23.1895 35.5349Z" fill="#FFA300"/>
<path d="M19.371 35.415C19.7886 35.5058 20.2106 35.5741 20.6357 35.6157C20.5406 36.1675 20.4594 36.7214 20.406 37.2796C19.9435 37.2295 19.4853 37.1451 19.0303 37.0491C19.1339 36.5026 19.2514 35.9583 19.371 35.415Z" fill="#FF7F00"/>
<path d="M21.9446 35.6547C22.3622 35.6408 22.7777 35.6003 23.19 35.5352C23.1964 36.1062 23.2381 36.6761 23.316 37.2418C22.8097 37.2973 22.3024 37.3538 21.7939 37.3656C21.8409 36.7956 21.8922 36.2246 21.9446 35.6547Z" fill="#FF9700"/>
<path d="M15.5565 35.6543C15.5918 35.6746 15.6602 35.7151 15.6954 35.7354C15.9849 35.8976 16.2786 36.0535 16.5787 36.1976C16.6332 36.2232 16.7432 36.2733 16.7977 36.2979C16.5083 36.9511 16.1942 37.5968 15.9988 38.2873C15.8311 38.885 15.4732 39.4005 15.2468 39.9737C14.8911 40.8211 14.7725 41.7795 14.2214 42.5341C13.7226 42.3239 13.2323 42.0955 12.7613 41.8297C12.6822 41.7849 12.6042 41.7401 12.5273 41.6952C12.9247 41.1125 13.1469 40.439 13.4801 39.8232C13.682 39.455 13.7856 39.0473 13.9394 38.6598C14.4233 37.6288 15.0182 36.6565 15.5565 35.6543Z" fill="#FF5D60"/>
<path d="M20.6359 35.6172C21.0706 35.6556 21.5086 35.6663 21.9444 35.6556C21.892 36.2256 21.8407 36.7966 21.7938 37.3665C21.6474 37.3676 21.5022 37.3654 21.3569 37.3612C21.0386 37.3462 20.7214 37.3153 20.4062 37.2811C20.4597 36.7229 20.5408 36.169 20.6359 35.6172Z" fill="#FF8C00"/>
<path d="M16.7979 36.2969C17.0446 36.4057 17.2967 36.5061 17.5509 36.6011C17.9803 36.7558 18.4129 36.9031 18.8573 37.0098C18.6906 37.4336 18.5432 37.869 18.5069 38.3258C18.4396 39.1391 18.163 39.915 17.865 40.6686C17.6973 41.0869 17.7346 41.5469 17.6684 41.9856C17.6107 42.356 17.5253 42.722 17.4612 43.0913C17.0596 43.2941 16.6548 43.4926 16.2393 43.6645C16.3717 43.5802 16.502 43.4905 16.6334 43.4019C15.8067 43.1692 14.9981 42.8779 14.2002 42.5609L14.2216 42.5331C14.7727 41.7786 14.8913 40.8201 15.247 39.9727C15.4734 39.3995 15.8312 38.884 15.9989 38.2863C16.1944 37.5958 16.5084 36.9501 16.7979 36.2969Z" fill="#FF6E54"/>
<path d="M24.8144 36.9144C25.247 36.798 25.6764 36.6689 26.1068 36.543C26.1667 36.7586 26.2275 36.9742 26.2895 37.1908C26.0673 37.3808 25.8409 37.5665 25.6166 37.7544C25.1316 38.161 24.6264 38.5431 24.1244 38.9295C23.6235 38.4524 23.9065 37.7373 23.9289 37.1439C24.2259 37.0756 24.5196 36.9912 24.8144 36.9144Z" fill="#FFA91E"/>
<path d="M30.0771 40.5181C31.5736 39.2459 33.006 37.8989 34.3636 36.4805C35.1347 37.3578 35.9444 38.2543 36.2851 39.3995C34.7887 40.9802 33.0455 42.3303 31.1271 43.3624C30.8355 42.3933 30.4745 41.4477 30.0771 40.5181Z" fill="#FFCA00"/>
<path d="M0.27082 36.6329C0.44906 36.6276 0.6273 36.6244 0.8066 36.6201C0.77138 37.4056 0.8034 38.1922 0.89519 38.9735C0.59741 38.9628 0.3007 38.9522 0.00292969 38.9436C0.0328097 38.1677 0.12247 37.395 0.27082 36.6329Z" fill="#2476FD"/>
<path d="M5.51172 37.7059C5.91441 37.3217 6.33098 36.9524 6.75609 36.5938C7.1043 37.0644 7.48028 37.5138 7.86908 37.9514C7.50912 38.3762 7.12032 38.7743 6.71443 39.1542C6.28504 38.6963 5.89517 38.2032 5.51172 37.7059Z" fill="#FF2A30"/>
<path d="M18.856 37.0098C18.8998 37.0194 18.9874 37.0397 19.0301 37.0493C19.4851 37.1453 19.9434 37.2296 20.4059 37.2798C20.721 37.314 21.0382 37.3449 21.3565 37.3599C21.2273 38.0376 21.1845 38.726 21.0841 39.4069C21.0019 40.0068 20.6708 40.5831 20.8363 41.2011C19.7426 41.8852 18.6135 42.5139 17.46 43.0913C17.5241 42.722 17.6095 42.3559 17.6672 41.9855C17.7334 41.5469 17.696 41.0869 17.8637 40.6685C18.1617 39.915 18.4384 39.139 18.5057 38.3258C18.542 37.8689 18.6894 37.4335 18.856 37.0098Z" fill="#FF8245"/>
<path d="M23.3149 37.2416C23.52 37.2181 23.725 37.1861 23.928 37.1455C23.9056 37.7389 23.6225 38.454 24.1235 38.9311C23.5531 39.3655 22.9635 39.7753 22.3771 40.1894C21.8697 40.5363 21.3549 40.8725 20.8358 41.2012C20.6702 40.5833 21.0013 40.0069 21.0836 39.4071C21.184 38.7262 21.2267 38.0378 21.356 37.36C21.5012 37.3643 21.6465 37.3664 21.7928 37.3654C22.3012 37.3536 22.8086 37.2971 23.3149 37.2416Z" fill="#FF9632"/>
<path d="M24.1243 38.93C24.6263 38.5436 25.1316 38.1615 25.6165 37.7549C27.2817 37.915 28.9587 37.7399 30.626 37.8637C29.6978 38.7101 28.7536 39.5576 27.7463 40.3025C26.8416 40.1595 25.9273 40.23 25.0162 40.2171C24.1371 40.215 23.257 40.231 22.3779 40.1883C22.9643 39.7742 23.5539 39.3644 24.1243 38.93Z" fill="#1878FE"/>
<path d="M6.71387 39.1521C7.11976 38.7721 7.50856 38.374 7.86852 37.9492C7.9059 37.9908 7.97961 38.073 8.01699 38.1136C8.34063 38.4669 8.6835 38.802 9.03065 39.1318C8.61835 39.5032 8.24771 39.9184 7.90698 40.3571C7.48934 39.976 7.09733 39.5683 6.71387 39.1521Z" fill="#FF3529"/>
<path d="M0.0022564 38.9443C0.300036 38.9529 0.596746 38.9635 0.894516 38.9742C0.957486 39.4033 1.0322 39.8313 1.12719 40.255C0.768576 40.2667 0.408896 40.2795 0.0492063 40.2923L0.0331963 40.2934C0.00224633 39.8441 -0.0041536 39.3937 0.0022564 38.9443Z" fill="#1179FE"/>
<path d="M9.02993 39.1309C9.08334 39.18 9.18801 39.2792 9.24035 39.3283C9.57574 39.6368 9.93036 39.926 10.2903 40.2067C9.89191 40.6027 9.48922 40.9944 9.06838 41.3669C8.6721 41.0403 8.27476 40.7137 7.90625 40.3561C8.24698 39.9175 8.61763 39.5023 9.02993 39.1309Z" fill="#FF3F23"/>
<path d="M0.0351562 40.2851C0.395116 40.2723 0.768416 40.2653 1.12731 40.2536C1.5129 41.7958 2.31507 43.2708 3.60217 44.2399C5.11891 45.414 7.11738 45.7235 8.98768 45.6189C10.8409 45.5164 12.6514 45.0415 14.3892 44.4118C15.0119 44.1791 15.6304 43.9347 16.2371 43.6636C16.6526 43.4918 17.0574 43.2933 17.459 43.0905C18.6126 42.5131 19.7416 41.8844 20.8354 41.2003C21.3545 40.8715 21.8693 40.5353 22.3767 40.1885C23.2558 40.2312 24.1359 40.2152 25.015 40.2173C25.9261 40.2301 26.8404 40.1597 27.7451 40.3027C27.0231 40.9004 26.2529 41.4383 25.4892 41.9815C25.486 41.9837 25.4785 41.989 25.4753 41.9912C22.2688 44.1994 18.776 46.0533 15.0258 47.1441C12.5243 47.8624 9.87103 48.2445 7.28081 47.8261C5.37099 47.5155 3.48788 46.6958 2.15699 45.2603C0.901941 43.9155 0.184696 42.1059 0.0351562 40.2851Z" fill="#0082FF"/>
<path d="M9.06836 41.3691C9.4892 40.9967 9.89189 40.605 10.2903 40.209C10.4729 40.3499 10.6588 40.4876 10.8468 40.6231C11.039 40.7608 11.2334 40.8974 11.4321 41.0287C11.1117 41.4844 10.7955 41.9465 10.3982 42.3404C9.94209 42.0341 9.50202 41.7064 9.06836 41.3691Z" fill="#FF4A1B"/>
<path d="M25.3701 44.027C27.0065 42.9511 28.5531 41.744 30.0774 40.5166C30.4747 41.4462 30.8357 42.3919 31.1273 43.361C29.3777 44.2949 27.4946 44.9801 25.5474 45.3664C25.4983 44.9182 25.4395 44.472 25.3701 44.027Z" fill="#FFB700"/>
<path d="M10.3984 42.3391C10.7958 41.9452 11.1119 41.4831 11.4324 41.0273C11.7891 41.26 12.1587 41.4756 12.5261 41.6933C12.6031 41.7382 12.681 41.783 12.7601 41.8278C12.4856 42.3102 12.2014 42.7863 11.9173 43.2633C11.3982 42.9762 10.8919 42.6678 10.3984 42.3391Z" fill="#FF5316"/>
<path d="M12.7617 41.8291C13.2328 42.0949 13.723 42.3233 14.2218 42.5335L14.2005 42.5613C13.8394 42.9839 13.5553 43.4642 13.3417 43.9776C12.8589 43.7577 12.3825 43.5229 11.9189 43.2646C12.2031 42.7875 12.4872 42.3115 12.7617 41.8291Z" fill="#FF5E0B"/>
<path d="M13.3408 43.9788C13.5545 43.4654 13.8386 42.9851 14.1996 42.5625C14.9975 42.8795 15.8061 43.1709 16.6328 43.4035C16.5014 43.4921 16.3711 43.5818 16.2387 43.6661C15.632 43.9372 15.0135 44.1816 14.3908 44.4143C14.0362 44.2787 13.6869 44.1325 13.3408 43.9788Z" fill="#FF6900"/>
<path d="M22.6211 45.7094C23.5087 45.1043 24.4786 44.6293 25.3705 44.0273C25.4399 44.4724 25.4986 44.9185 25.5478 45.3668C24.5811 45.5387 23.6048 45.6987 22.6211 45.7094Z" fill="#FFA500"/>
</svg>
