<svg width="1320" height="88" viewBox="0 0 1320 88" fill="none" xmlns="http://www.w3.org/2000/svg">
<rect x="0.5" y="0.5" width="223" height="87" fill="white" stroke="white"/>
<path d="M89.3633 49.2245V25.5752H94.9774C96.7148 25.5752 98.0978 26.1241 99.1264 27.2218C100.086 28.2677 100.566 29.5989 100.566 31.2153V34.6512C100.566 36.207 100.021 37.5382 98.9319 38.6446C97.8428 39.751 96.5246 40.3042 94.9774 40.3042H92.9159V49.2245L89.3633 49.2245ZM96.5138 36.1746C96.9071 35.7727 97.1038 35.2908 97.1038 34.7289V31.2801C97.1038 30.6577 96.9201 30.1585 96.5527 29.7825C96.1854 29.4065 95.6905 29.2185 95.0682 29.2185H92.9159V36.7775H95.0682C95.6387 36.7775 96.1205 36.5765 96.5138 36.1746ZM102.521 49.2245L106.527 25.5752H111.441L115.396 49.2245H111.661L110.819 43.7919H107.098L106.229 49.2245H102.521ZM108.965 30.9948L107.642 40.3171H110.287L108.965 30.9948ZM119.801 49.2245V25.5752H125.415C127.153 25.5752 128.536 26.1241 129.564 27.2218C130.524 28.2677 131.003 29.5989 131.003 31.2153V34.6512C131.003 36.207 130.459 37.5382 129.37 38.6446C128.281 39.751 126.963 40.3042 125.415 40.3042H123.354V49.2245L119.801 49.2245ZM126.952 36.1746C127.345 35.7727 127.542 35.2908 127.542 34.7289V31.2801C127.542 30.6577 127.358 30.1585 126.991 29.7825C126.623 29.4065 126.128 29.2185 125.506 29.2185H123.354V36.7775H125.506C126.077 36.7775 126.558 36.5765 126.952 36.1746ZM135.253 49.2245V25.5752H145.393V29.1407H138.806V35.6106H143.616V39.1891H138.806V45.659H145.393V49.2245L135.253 49.2245ZM149.254 49.2245V25.5752H154.868C156.856 25.5752 158.312 26.1241 159.237 27.2218C160.058 28.1813 160.469 29.5124 160.469 31.2153V34.6512C160.469 36.328 159.834 37.7413 158.563 38.8909L161.208 49.2245H157.357L155.179 40.2912C155.075 40.2999 154.967 40.3042 154.855 40.3042H152.806V49.2245L149.254 49.2245ZM156.404 36.1746C156.797 35.7727 156.994 35.2908 156.994 34.7289V31.2801C156.994 29.9057 156.316 29.2185 154.959 29.2185H152.806V36.7775H154.959C155.529 36.7775 156.011 36.5765 156.404 36.1746ZM165.458 49.2245V45.6849L172.032 29.1407H165.458V25.5752H175.856V29.1407L169.296 45.6849H175.856V49.2245H165.458Z" fill="#A4A4A4"/>
<path d="M88.793 61.3368V55.618H89.4219V60.8169H91.9962V61.3368L88.793 61.3368ZM93.3546 61.2026C93.0583 61.0238 92.8263 60.775 92.6586 60.4563C92.4909 60.1377 92.4071 59.7771 92.4071 59.3746C92.4071 58.9721 92.4895 58.6116 92.6544 58.2929C92.8193 57.9743 93.0485 57.7255 93.342 57.5466C93.6355 57.3677 93.9695 57.2783 94.3441 57.2783C94.6963 57.2783 95.0149 57.3649 95.3 57.5382C95.5851 57.7115 95.8087 57.9477 95.9708 58.2468C96.133 58.5459 96.214 58.8799 96.214 59.2489C96.214 59.3551 96.2112 59.4361 96.2056 59.492H92.9773C92.9996 59.8945 93.131 60.2383 93.3714 60.5234C93.6118 60.8085 93.9388 60.9511 94.3525 60.9511C94.6879 60.9511 94.966 60.8882 95.1868 60.7624C95.4076 60.6366 95.5851 60.4619 95.7193 60.2383L96.1721 60.5402C95.9876 60.8309 95.7444 61.0587 95.4426 61.2236C95.1407 61.3885 94.7829 61.471 94.3692 61.471C93.9891 61.471 93.6509 61.3815 93.3546 61.2026ZM95.2329 58.1043C95.0149 57.9002 94.7186 57.7982 94.3441 57.7982C93.9807 57.7982 93.683 57.9142 93.451 58.1462C93.219 58.3782 93.0723 58.6703 93.0108 59.0225H95.6438C95.5879 58.6144 95.4509 58.3083 95.2329 58.1043ZM97.7569 61.2026C97.4606 61.0238 97.2286 60.775 97.0609 60.4563C96.8932 60.1377 96.8094 59.7743 96.8094 59.3662C96.8094 58.9637 96.8918 58.6046 97.0567 58.2887C97.2216 57.9729 97.4508 57.7255 97.7443 57.5466C98.0378 57.3677 98.3718 57.2783 98.7464 57.2783C99.0315 57.2783 99.2928 57.3412 99.5304 57.467C99.768 57.5927 99.9679 57.7702 100.13 57.9994V57.4124H100.7V61.3368H100.13V60.7582C99.9678 60.9818 99.7694 61.1565 99.5346 61.2823C99.2998 61.4081 99.0427 61.471 98.7632 61.471C98.3886 61.471 98.0532 61.3815 97.7569 61.2026ZM99.4633 60.7498C99.673 60.6157 99.8365 60.4284 99.9539 60.188C100.071 59.9476 100.13 59.6765 100.13 59.3746C100.13 59.0728 100.071 58.8016 99.9539 58.5613C99.8365 58.3209 99.673 58.1336 99.4633 57.9994C99.2537 57.8653 99.0147 57.7982 98.7464 57.7982C98.4836 57.7982 98.2489 57.8653 98.042 57.9994C97.8352 58.1336 97.6731 58.3195 97.5557 58.5571C97.4383 58.7947 97.3796 59.0644 97.3796 59.3663C97.3796 59.6737 97.4383 59.9476 97.5557 60.188C97.6731 60.4284 97.8352 60.6157 98.042 60.7499C98.2489 60.884 98.4836 60.9511 98.7464 60.9511C99.0147 60.9511 99.2537 60.884 99.4633 60.7498ZM102.461 61.2026C102.165 61.0238 101.933 60.775 101.765 60.4563C101.597 60.1377 101.514 59.7743 101.514 59.3662C101.514 58.9637 101.596 58.6046 101.761 58.2887C101.926 57.9729 102.155 57.7255 102.449 57.5466C102.742 57.3677 103.076 57.2783 103.451 57.2783C103.736 57.2783 103.997 57.3412 104.235 57.467C104.472 57.5927 104.672 57.7702 104.834 57.9994V55.249H105.404V61.3368H104.834V60.7582C104.672 60.9818 104.474 61.1565 104.239 61.2823C104.004 61.4081 103.747 61.471 103.467 61.471C103.093 61.471 102.757 61.3815 102.461 61.2026ZM104.168 60.7498C104.377 60.6157 104.541 60.4284 104.658 60.188C104.775 59.9476 104.834 59.6765 104.834 59.3746C104.834 59.0728 104.775 58.8016 104.658 58.5613C104.541 58.3209 104.377 58.1336 104.168 57.9994C103.958 57.8653 103.719 57.7982 103.451 57.7982C103.188 57.7982 102.953 57.8653 102.746 57.9994C102.539 58.1336 102.377 58.3195 102.26 58.5571C102.142 58.7947 102.084 59.0644 102.084 59.3663C102.084 59.6737 102.142 59.9476 102.26 60.188C102.377 60.4284 102.539 60.6157 102.746 60.7499C102.953 60.884 103.188 60.9511 103.451 60.9511C103.719 60.9511 103.958 60.884 104.168 60.7498ZM106.733 56.5152C106.647 56.4258 106.603 56.3168 106.603 56.1882C106.603 56.0652 106.647 55.9604 106.733 55.8738C106.82 55.7871 106.928 55.7438 107.056 55.7438C107.179 55.7438 107.285 55.7871 107.375 55.8738C107.464 55.9604 107.509 56.068 107.509 56.1966C107.509 56.3196 107.464 56.4258 107.375 56.5152C107.285 56.6047 107.179 56.6494 107.056 56.6494C106.928 56.6494 106.82 56.6047 106.733 56.5152ZM106.771 61.3368V57.4125H107.341V61.3368H106.771ZM108.708 61.3368V57.4125H109.278V58.0665C109.413 57.815 109.59 57.6207 109.811 57.4837C110.032 57.3468 110.287 57.2783 110.578 57.2783C110.852 57.2783 111.105 57.3342 111.337 57.446C111.569 57.5578 111.753 57.7227 111.89 57.9407C112.027 58.1588 112.096 58.4159 112.096 58.7122V61.3368H111.526V58.9637C111.526 58.1867 111.179 57.7982 110.486 57.7982C110.083 57.7982 109.782 57.9407 109.58 58.2258C109.379 58.5109 109.278 58.8939 109.278 59.3746V61.3368L108.708 61.3368ZM113.505 63.0139V62.494H115.131C115.472 62.494 115.751 62.371 115.966 62.125C116.181 61.8791 116.289 61.566 116.289 61.1859V60.7582C116.126 60.9818 115.928 61.1565 115.693 61.2823C115.458 61.4081 115.201 61.471 114.922 61.471C114.547 61.471 114.212 61.3815 113.915 61.2026C113.619 61.0238 113.387 60.775 113.22 60.4563C113.052 60.1377 112.968 59.7743 112.968 59.3662C112.968 58.9637 113.05 58.6046 113.215 58.2887C113.38 57.9729 113.609 57.7255 113.903 57.5466C114.196 57.3677 114.53 57.2783 114.905 57.2783C115.19 57.2783 115.451 57.3412 115.689 57.467C115.927 57.5927 116.126 57.7702 116.289 57.9994V57.4124H116.859V61.1859C116.859 61.538 116.786 61.8525 116.641 62.1292C116.495 62.4059 116.291 62.6225 116.029 62.7791C115.766 62.9356 115.467 63.0139 115.131 63.0139L113.505 63.0139ZM115.622 60.7498C115.832 60.6157 115.995 60.4284 116.112 60.188C116.23 59.9476 116.289 59.6765 116.289 59.3746C116.289 59.0728 116.23 58.8016 116.112 58.5613C115.995 58.3209 115.832 58.1336 115.622 57.9994C115.412 57.8653 115.173 57.7982 114.905 57.7982C114.642 57.7982 114.407 57.8653 114.201 57.9994C113.994 58.1336 113.832 58.3195 113.714 58.5571C113.597 58.7947 113.538 59.0644 113.538 59.3663C113.538 59.6737 113.597 59.9476 113.714 60.188C113.832 60.4284 113.994 60.6157 114.201 60.7499C114.407 60.884 114.642 60.9511 114.905 60.9511C115.173 60.9511 115.412 60.884 115.622 60.7498ZM119.928 61.3368V55.618H121.84C122.354 55.618 122.765 55.7745 123.072 56.0876C123.38 56.4006 123.534 56.8339 123.534 57.3873C123.534 57.9351 123.373 58.3656 123.051 58.6786C122.73 58.9917 122.304 59.1482 121.773 59.1482H120.557V61.3368L119.928 61.3368ZM122.611 58.3139C122.807 58.1043 122.905 57.7954 122.905 57.3873C122.905 56.9792 122.807 56.669 122.611 56.4565C122.415 56.2441 122.13 56.1379 121.756 56.1379H120.557V58.6283H121.756C122.13 58.6283 122.415 58.5235 122.611 58.3139ZM124.976 61.2026C124.68 61.0238 124.448 60.775 124.28 60.4563C124.112 60.1377 124.028 59.7743 124.028 59.3662C124.028 58.9637 124.111 58.6046 124.276 58.2887C124.441 57.9729 124.67 57.7255 124.963 57.5466C125.257 57.3677 125.591 57.2783 125.965 57.2783C126.25 57.2783 126.512 57.3412 126.749 57.467C126.987 57.5927 127.187 57.7702 127.349 57.9994V57.4124H127.919V61.3368H127.349V60.7582C127.187 60.9818 126.988 61.1565 126.753 61.2823C126.519 61.4081 126.262 61.471 125.982 61.471C125.607 61.471 125.272 61.3815 124.976 61.2026ZM126.682 60.7498C126.892 60.6157 127.055 60.4284 127.173 60.188C127.29 59.9476 127.349 59.6765 127.349 59.3746C127.349 59.0728 127.29 58.8016 127.173 58.5613C127.055 58.3209 126.892 58.1336 126.682 57.9994C126.473 57.8653 126.234 57.7982 125.965 57.7982C125.703 57.7982 125.468 57.8653 125.261 57.9994C125.054 58.1336 124.892 58.3195 124.775 58.5571C124.657 58.7947 124.598 59.0644 124.598 59.3663C124.598 59.6737 124.657 59.9476 124.775 60.188C124.892 60.4284 125.054 60.6157 125.261 60.7499C125.468 60.884 125.703 60.9511 125.965 60.9511C126.234 60.9511 126.473 60.884 126.682 60.7498ZM128.984 63.0139V57.4125H129.554V57.9911C129.716 57.7674 129.915 57.5928 130.15 57.467C130.384 57.3412 130.641 57.2783 130.921 57.2783C131.296 57.2783 131.631 57.3677 131.927 57.5466C132.224 57.7255 132.456 57.9743 132.623 58.2929C132.791 58.6116 132.875 58.9749 132.875 59.383C132.875 59.7855 132.792 60.1447 132.627 60.4606C132.463 60.7764 132.233 61.0238 131.94 61.2027C131.646 61.3815 131.312 61.471 130.938 61.471C130.653 61.471 130.391 61.4081 130.154 61.2823C129.916 61.1565 129.716 60.979 129.554 60.7498V63.0139L128.984 63.0139ZM131.642 60.7498C131.849 60.6157 132.011 60.4298 132.128 60.1922C132.246 59.9546 132.305 59.6849 132.305 59.383C132.305 59.0756 132.246 58.8016 132.128 58.5613C132.011 58.3209 131.849 58.1336 131.642 57.9994C131.435 57.8653 131.201 57.7982 130.938 57.7982C130.669 57.7982 130.43 57.8653 130.221 57.9994C130.011 58.1336 129.848 58.3209 129.73 58.5613C129.613 58.8016 129.554 59.0728 129.554 59.3746C129.554 59.6765 129.613 59.9476 129.73 60.188C129.848 60.4284 130.011 60.6157 130.221 60.7498C130.43 60.884 130.669 60.9511 130.938 60.9511C131.201 60.9511 131.435 60.884 131.642 60.7498ZM134.384 61.2026C134.088 61.0238 133.856 60.775 133.688 60.4563C133.52 60.1377 133.437 59.7771 133.437 59.3746C133.437 58.9721 133.519 58.6116 133.684 58.2929C133.849 57.9743 134.078 57.7255 134.372 57.5466C134.665 57.3677 134.999 57.2783 135.374 57.2783C135.726 57.2783 136.044 57.3649 136.33 57.5382C136.615 57.7115 136.838 57.9477 137 58.2468C137.163 58.5459 137.244 58.8799 137.244 59.2489C137.244 59.3551 137.241 59.4361 137.235 59.492H134.007C134.029 59.8945 134.161 60.2383 134.401 60.5234C134.641 60.8085 134.968 60.9511 135.382 60.9511C135.717 60.9511 135.996 60.8882 136.216 60.7624C136.437 60.6366 136.615 60.4619 136.749 60.2383L137.202 60.5402C137.017 60.8309 136.774 61.0587 136.472 61.2236C136.17 61.3885 135.812 61.471 135.399 61.471C135.019 61.471 134.68 61.3815 134.384 61.2026ZM136.262 58.1043C136.044 57.9002 135.748 57.7982 135.374 57.7982C135.01 57.7982 134.713 57.9142 134.481 58.1462C134.249 58.3782 134.102 58.6703 134.04 59.0225H136.673C136.617 58.6144 136.481 58.3083 136.262 58.1043ZM138.082 61.3368V57.4125H138.652V58.2007C138.803 57.91 138.995 57.6836 139.227 57.5215C139.459 57.3594 139.72 57.2783 140.011 57.2783C140.145 57.2783 140.273 57.2979 140.396 57.337V57.8569C140.279 57.801 140.151 57.773 140.011 57.773C139.77 57.773 139.547 57.8401 139.34 57.9743C139.133 58.1085 138.967 58.3027 138.841 58.5571C138.715 58.8114 138.652 59.1119 138.652 59.4585V61.3368L138.082 61.3368ZM143.814 61.1146C143.464 60.877 143.196 60.536 143.009 60.0916C142.821 59.6472 142.728 59.1147 142.728 58.4942C142.728 57.8681 142.818 57.33 143 56.88C143.182 56.43 143.442 56.0862 143.78 55.8486C144.118 55.611 144.519 55.4922 144.983 55.4922C145.458 55.4922 145.865 55.597 146.203 55.8067C146.542 56.0163 146.806 56.3112 146.996 56.6913L146.493 56.9848C146.314 56.655 146.104 56.4188 145.864 56.2763C145.623 56.1337 145.33 56.0624 144.983 56.0624C144.486 56.0624 144.096 56.2763 143.814 56.7039C143.531 57.1316 143.39 57.7255 143.39 58.4858C143.39 58.9833 143.454 59.4138 143.583 59.7772C143.711 60.1405 143.896 60.4186 144.136 60.6115C144.377 60.8044 144.656 60.9008 144.975 60.9008C145.372 60.9008 145.681 60.8127 145.901 60.6367C146.122 60.4606 146.328 60.1852 146.518 59.8107L147.046 60.1293C146.845 60.5654 146.578 60.898 146.245 61.1272C145.913 61.3564 145.517 61.471 145.059 61.471C144.578 61.471 144.163 61.3522 143.814 61.1146ZM148.572 61.2026C148.276 61.0238 148.044 60.7736 147.876 60.4522C147.708 60.1307 147.625 59.7687 147.625 59.3663C147.625 58.9638 147.707 58.6046 147.872 58.2887C148.037 57.9729 148.266 57.7255 148.56 57.5466C148.853 57.3677 149.187 57.2783 149.562 57.2783C149.936 57.2783 150.272 57.3677 150.568 57.5466C150.864 57.7255 151.096 57.9743 151.264 58.2929C151.432 58.6116 151.515 58.9721 151.515 59.3746C151.515 59.7771 151.433 60.1377 151.268 60.4563C151.103 60.775 150.874 61.0238 150.58 61.2026C150.287 61.3815 149.953 61.471 149.578 61.471C149.204 61.471 148.868 61.3815 148.572 61.2026ZM150.279 60.7498C150.488 60.6157 150.652 60.4284 150.769 60.188C150.887 59.9476 150.945 59.6765 150.945 59.3746C150.945 59.0728 150.887 58.8016 150.769 58.5613C150.652 58.3209 150.488 58.1336 150.279 57.9994C150.069 57.8653 149.83 57.7982 149.562 57.7982C149.299 57.7982 149.064 57.8653 148.857 57.9994C148.65 58.1336 148.488 58.3195 148.371 58.5571C148.254 58.7947 148.195 59.0644 148.195 59.3663C148.195 59.6737 148.254 59.9476 148.371 60.188C148.488 60.4284 148.65 60.6157 148.857 60.7499C149.064 60.884 149.299 60.9511 149.562 60.9511C149.83 60.9511 150.069 60.884 150.279 60.7498ZM152.32 61.3368V57.4125H152.891V58.0246C153.019 57.7842 153.183 57.5997 153.381 57.4712C153.58 57.3426 153.807 57.2783 154.065 57.2783C154.35 57.2783 154.598 57.3552 154.811 57.5089C155.023 57.6626 155.171 57.8821 155.255 58.1672C155.378 57.8876 155.546 57.6696 155.758 57.5131C155.971 57.3566 156.217 57.2783 156.496 57.2783C156.86 57.2783 157.162 57.4055 157.402 57.6598C157.642 57.9142 157.763 58.265 157.763 58.7122V61.3368H157.192V58.9638C157.192 58.5501 157.114 58.2524 156.958 58.0707C156.801 57.889 156.597 57.7982 156.345 57.7982C156.038 57.7982 155.799 57.917 155.628 58.1546C155.458 58.3922 155.359 58.715 155.331 59.1231V61.3368H154.761V58.9638C154.761 58.5501 154.682 58.2524 154.526 58.0707C154.369 57.889 154.165 57.7982 153.914 57.7982C153.573 57.7982 153.317 57.9407 153.146 58.2258C152.976 58.5109 152.891 58.8939 152.891 59.3746V61.3368L152.32 61.3368ZM158.786 63.0139V57.4125H159.356V57.9911C159.518 57.7674 159.716 57.5928 159.951 57.467C160.186 57.3412 160.443 57.2783 160.723 57.2783C161.097 57.2783 161.433 57.3677 161.729 57.5466C162.025 57.7255 162.257 57.9743 162.425 58.2929C162.593 58.6116 162.676 58.9749 162.676 59.383C162.676 59.7855 162.594 60.1447 162.429 60.4606C162.264 60.7764 162.035 61.0238 161.741 61.2027C161.448 61.3815 161.114 61.471 160.739 61.471C160.454 61.471 160.193 61.4081 159.955 61.2823C159.718 61.1565 159.518 60.979 159.356 60.7498V63.0139L158.786 63.0139ZM161.444 60.7498C161.651 60.6157 161.813 60.4298 161.93 60.1922C162.047 59.9546 162.106 59.6849 162.106 59.383C162.106 59.0756 162.047 58.8016 161.93 58.5613C161.813 58.3209 161.651 58.1336 161.444 57.9994C161.237 57.8653 161.002 57.7982 160.739 57.7982C160.471 57.7982 160.232 57.8653 160.022 57.9994C159.813 58.1336 159.649 58.3209 159.532 58.5613C159.414 58.8016 159.356 59.0728 159.356 59.3746C159.356 59.6765 159.414 59.9476 159.532 60.188C159.649 60.4284 159.813 60.6157 160.022 60.7498C160.232 60.884 160.471 60.9511 160.739 60.9511C161.002 60.9511 161.237 60.884 161.444 60.7498ZM164.186 61.2026C163.889 61.0238 163.657 60.775 163.49 60.4563C163.322 60.1377 163.238 59.7743 163.238 59.3662C163.238 58.9637 163.321 58.6046 163.486 58.2887C163.65 57.9729 163.88 57.7255 164.173 57.5466C164.467 57.3677 164.801 57.2783 165.175 57.2783C165.46 57.2783 165.722 57.3412 165.959 57.467C166.197 57.5927 166.397 57.7702 166.559 57.9994V57.4124H167.129V61.3368H166.559V60.7582C166.397 60.9818 166.198 61.1565 165.963 61.2823C165.729 61.4081 165.471 61.471 165.192 61.471C164.817 61.471 164.482 61.3815 164.186 61.2026ZM165.892 60.7498C166.102 60.6157 166.265 60.4284 166.383 60.188C166.5 59.9476 166.559 59.6765 166.559 59.3746C166.559 59.0728 166.5 58.8016 166.383 58.5613C166.265 58.3209 166.102 58.1336 165.892 57.9994C165.683 57.8653 165.444 57.7982 165.175 57.7982C164.912 57.7982 164.678 57.8653 164.471 57.9994C164.264 58.1336 164.102 58.3195 163.984 58.5571C163.867 58.7947 163.808 59.0644 163.808 59.3663C163.808 59.6737 163.867 59.9476 163.984 60.188C164.102 60.4284 164.264 60.6157 164.471 60.7499C164.678 60.884 164.912 60.9511 165.175 60.9511C165.444 60.9511 165.683 60.884 165.892 60.7498ZM168.186 61.3368V57.4125H168.756V58.0665C168.89 57.815 169.067 57.6207 169.288 57.4837C169.509 57.3468 169.765 57.2783 170.055 57.2783C170.329 57.2783 170.582 57.3342 170.814 57.446C171.046 57.5578 171.231 57.7227 171.368 57.9407C171.505 58.1588 171.573 58.4159 171.573 58.7122V61.3368H171.003V58.9637C171.003 58.1867 170.656 57.7982 169.963 57.7982C169.561 57.7982 169.259 57.9407 169.058 58.2258C168.856 58.5109 168.756 58.8939 168.756 59.3746V61.3368L168.186 61.3368ZM173.234 63.0139L173.854 61.4123L172.244 57.4125H172.839L174.139 60.666L175.389 57.4125H175.925L173.804 63.0139H173.234Z" fill="#A4A4A4"/>
<path fill-rule="evenodd" clip-rule="evenodd" d="M69.0317 31.0557V58.2607C66.879 59.5864 64.3163 60.6785 61.4845 61.3953C59.1464 61.9879 56.8488 62.2678 54.7011 62.2678C52.6304 62.2678 50.6992 62.0079 49 61.5151V34.3102C49.0009 34.3102 49.0025 34.3109 49.0034 34.3109C49.6361 34.494 50.3008 34.6452 50.9935 34.7627C51.6344 34.8716 52.2991 34.9517 52.9836 35.001C53.5435 35.0428 54.1166 35.0637 54.7011 35.0637C56.8497 35.0637 59.1464 34.7828 61.4845 34.1909C64.3162 33.4732 66.879 32.382 69.0317 31.0557ZM65.051 37.3011C64.8827 37.3584 64.7136 37.4145 64.5436 37.4693L65.051 37.4691L65.051 37.3011Z" fill="#A4A4A4"/>
<path fill-rule="evenodd" clip-rule="evenodd" d="M76.486 25V55.0474C74.083 56.5116 71.2222 57.7178 68.0612 58.5094C65.4513 59.164 62.8864 59.4731 60.489 59.4731C58.1776 59.4731 56.0218 59.186 54.125 58.6417V28.5946C54.126 28.5946 54.1278 28.5953 54.1288 28.5953C54.8351 28.7975 55.577 28.9645 56.3503 29.0943C57.0658 29.2147 57.8077 29.3031 58.5719 29.3576C59.1968 29.4037 59.8366 29.4268 60.489 29.4268C62.8874 29.4268 65.4513 29.1166 68.0612 28.4628C71.2222 27.6702 74.083 26.465 76.486 25Z" fill="#A4A4A4"/>
<rect x="274.5" y="0.5" width="223" height="87" fill="white" stroke="white"/>
<path d="M327 56.888C328.015 56.8221 328.746 56.6771 329.195 56.4531C329.985 56.0445 330.381 55.2998 330.381 54.219V34.2508C330.381 33.2096 330.005 32.4846 329.254 32.076C328.819 31.8388 328.068 31.674 327 31.5818V30.5537H339.376C344.372 30.5537 348.181 31.8849 350.804 34.5474C353.189 36.9725 354.382 40.2281 354.382 44.314C354.382 47.9781 353.183 51.0821 350.784 53.6259C348.082 56.486 344.418 57.9161 339.792 57.9161H327V56.888ZM336.925 54.1795C336.964 55.0098 337.116 55.6095 337.38 55.9786C337.656 56.3476 338.236 56.5322 339.119 56.5322C341.518 56.5322 343.489 55.6886 345.031 54.0015C346.573 52.3013 347.344 49.0457 347.344 44.2349C347.344 41.3748 346.929 38.9166 346.098 36.8605C344.754 33.5522 342.487 31.8981 339.297 31.8981C338.243 31.8981 337.557 32.1222 337.241 32.5703C337.03 32.8603 336.925 33.4204 336.925 34.2508L336.925 54.1795Z" fill="#A4A4A4"/>
<path d="M356.597 48.6436C356.597 45.823 357.46 43.4703 359.187 41.5855C360.926 39.7007 363.108 38.7583 365.731 38.7583C368.406 38.7583 370.594 39.7205 372.294 41.6448C374.008 43.5691 374.865 45.902 374.865 48.6436C374.865 51.3455 374.021 53.6719 372.334 55.6225C370.647 57.5601 368.446 58.5288 365.731 58.5288C363.095 58.5288 360.913 57.5864 359.187 55.7016C357.46 53.8036 356.597 51.451 356.597 48.6436ZM362.548 48.6436C362.548 51.4773 362.693 53.461 362.983 54.5945C363.444 56.3475 364.36 57.224 365.731 57.224C367.036 57.224 367.892 56.5518 368.301 55.2074C368.709 53.863 368.914 51.675 368.914 48.6436C368.914 45.6253 368.696 43.4439 368.261 42.0995C367.84 40.7419 367.003 40.0632 365.75 40.0632C364.38 40.0632 363.464 40.9396 363.002 42.6926C362.699 43.8657 362.548 45.8493 362.548 48.6436Z" fill="#A4A4A4"/>
<path d="M376.684 56.9472C377.461 56.8549 378.002 56.6704 378.305 56.3936C378.608 56.1168 378.773 55.583 378.799 54.7922L378.839 53.606V42.5938C378.839 41.7503 378.694 41.1769 378.404 40.8738C378.114 40.5706 377.54 40.3663 376.684 40.2609V39.2724H384.374V42.4554C385.231 41.3351 386.081 40.4454 386.925 39.7864C387.768 39.1274 388.744 38.7979 389.851 38.7979C390.681 38.7979 391.426 39.0681 392.085 39.6084C392.757 40.1357 393.093 40.9133 393.093 41.9414C393.093 42.7322 392.856 43.3846 392.381 43.8986C391.92 44.4127 391.314 44.6697 390.563 44.6697C389.706 44.6697 388.961 44.2677 388.328 43.4637C387.709 42.6597 387.274 42.2577 387.024 42.2577C386.483 42.2577 385.936 42.5938 385.383 43.266C384.842 43.925 384.572 44.874 384.572 46.1129V53.7641C384.572 55.1085 384.763 55.9521 385.145 56.2948C385.541 56.6243 386.318 56.8417 387.478 56.9472V57.9159H376.684L376.684 56.9472Z" fill="#A4A4A4"/>
<path d="M394.496 56.9472C395.326 56.8813 395.92 56.6968 396.275 56.3936C396.645 56.0905 396.829 55.4578 396.829 54.4957V41.3285H394.496V39.5492H396.829V38.0466C396.829 36.1618 397.126 34.6131 397.719 33.4005C398.839 31.1335 400.908 30 403.927 30C405.535 30 406.892 30.369 407.999 31.1071C409.12 31.8321 409.68 32.7942 409.68 33.9936C409.68 34.7449 409.443 35.3512 408.968 35.8125C408.507 36.2738 407.887 36.5045 407.11 36.5045C406.464 36.5045 405.91 36.2936 405.449 35.8718C404.988 35.4501 404.757 34.9426 404.757 34.3495C404.757 33.9014 404.902 33.4335 405.192 32.9458C405.495 32.445 405.647 32.1418 405.647 32.0364C405.647 31.7069 405.528 31.496 405.291 31.4037C405.054 31.3114 404.797 31.2653 404.52 31.2653C403.861 31.2653 403.353 31.4564 402.997 31.8386C402.642 32.2209 402.464 33.0447 402.464 34.31V39.5491H405.983V41.3285H402.464V53.7641C402.464 55.1613 402.661 56.018 403.057 56.3343C403.465 56.6506 404.362 56.8549 405.746 56.9472V57.916H394.496L394.496 56.9472Z" fill="#A4A4A4"/>
<path d="M415.71 39.2725V53.013C415.71 53.8302 415.809 54.4299 416.007 54.8121C416.35 55.4843 417.029 55.8204 418.043 55.8204C418.689 55.8204 419.322 55.6161 419.941 55.2075C420.297 54.9834 420.745 54.6078 421.286 54.0806V42.5939C421.286 41.7504 421.114 41.1638 420.772 40.8343C420.442 40.4916 419.77 40.3005 418.755 40.261V39.2725H426.822V53.8433C426.822 54.6869 426.98 55.2734 427.296 55.6029C427.612 55.9192 428.232 56.1169 429.154 56.196V57.1252C426.65 57.3625 425.069 57.5404 424.41 57.659C423.764 57.7645 422.722 58.0413 421.286 58.4894V55.8204C420.324 56.6507 419.526 57.2373 418.894 57.58C417.786 58.1863 416.633 58.4894 415.434 58.4894C414.129 58.4894 412.91 58.0742 411.776 57.2439C410.656 56.4135 410.096 54.9373 410.096 52.8153V42.5939C410.096 41.7372 409.957 41.177 409.681 40.9134C409.404 40.6498 408.87 40.4324 408.079 40.261V39.2725L415.71 39.2725Z" fill="#A4A4A4"/>
<path d="M430.993 51.7871H432.12C432.515 53.7246 433.254 55.0953 434.334 55.8993C435.415 56.6902 436.522 57.0856 437.656 57.0856C438.697 57.0856 439.462 56.8549 439.949 56.3936C440.437 55.9191 440.681 55.2996 440.681 54.5352C440.681 53.8103 440.417 53.1908 439.89 52.6767C439.6 52.4 439.132 52.1034 438.486 51.7871L435.481 50.3241C433.899 49.5464 432.766 48.7029 432.081 47.7934C431.382 46.884 431.033 45.8098 431.033 44.5708C431.033 43.0024 431.58 41.6514 432.674 40.5179C433.768 39.3712 435.297 38.7979 437.26 38.7979C438.117 38.7979 439.027 38.9428 439.989 39.2328C440.951 39.5096 441.551 39.648 441.788 39.648C442.117 39.648 442.348 39.5821 442.48 39.4503C442.625 39.3053 442.743 39.1076 442.836 38.8572H443.725V44.7092H442.697C442.315 43.3385 441.689 42.2379 440.819 41.4075C439.949 40.5772 438.934 40.162 437.774 40.162C436.878 40.162 436.206 40.4124 435.758 40.9133C435.323 41.4141 435.105 41.9545 435.105 42.5345C435.105 43.009 435.303 43.4834 435.699 43.9579C436.081 44.4456 436.806 44.9465 437.873 45.4605L440.088 46.5281C441.458 47.1871 442.46 47.8264 443.093 48.4459C444.147 49.5003 444.674 50.7985 444.674 52.3406C444.674 53.8432 444.127 55.2469 443.033 56.5518C441.953 57.8434 440.325 58.4893 438.15 58.4893C437.61 58.4893 437.063 58.43 436.509 58.3113C435.969 58.2059 435.297 58.0148 434.493 57.738L433.801 57.5008C433.55 57.4085 433.392 57.3558 433.326 57.3426C433.273 57.3294 433.201 57.3228 433.109 57.3228C432.885 57.3228 432.687 57.4151 432.516 57.5996C432.357 57.771 432.173 58.0675 431.962 58.4893H430.993L430.993 51.7871Z" fill="#A4A4A4"/>
<rect x="822.5" y="0.5" width="223" height="87" fill="white" stroke="white"/>
<path d="M903.527 45.2736L906.357 44.1555C906.951 46.0422 908.663 47.1603 911.214 47.1603C913.52 47.1603 915.022 46.182 915.022 44.47C915.022 40.0327 904.436 42.0242 904.436 35.7003C904.436 32.5208 907.056 30.5642 911.109 30.5642C914.463 30.5642 916.874 31.9269 917.678 34.3726L914.848 35.4906C914.254 33.8485 912.926 33.0799 911.074 33.0799C908.943 33.0799 907.72 34.0232 907.72 35.5256C907.72 37.4221 909.975 37.9878 912.41 38.7021L912.729 38.7963C915.495 39.6216 918.376 40.7189 918.376 44.2254C918.376 47.7193 915.476 49.7458 911.109 49.7458C907.301 49.7458 904.506 48.2084 903.527 45.2736ZM935.345 55.6155V46.3217C933.878 48.453 931.537 49.7457 928.637 49.7457C923.431 49.7457 919.588 45.6579 919.588 40.1725C919.588 34.687 923.326 30.5642 928.567 30.5642C931.642 30.5642 934.087 31.9967 935.555 34.3726V30.9486H938.315V55.6155L935.345 55.6155ZM935.45 40.1725C935.45 36.0846 932.795 33.1847 928.986 33.1847C925.283 33.1847 922.523 36.1545 922.523 40.1725C922.523 44.1555 925.283 47.1253 928.986 47.1253C932.83 47.1253 935.45 44.2603 935.45 40.1725ZM941.867 42.3037V30.9486H944.837V41.9543C944.837 45.0639 946.828 47.1253 949.973 47.0904C953.082 47.0904 955.179 44.8543 955.214 42.5134V30.9486H958.184V49.3614H955.354V46.741C954.131 48.453 951.929 49.7457 949.204 49.7457C944.487 49.7457 941.867 46.6711 941.867 42.3037ZM960.827 40.1375C960.827 34.687 964.671 30.7389 969.876 30.7389C972.986 30.7389 975.397 32.1365 976.794 34.5123V30.9486H979.555V49.3614H976.794V45.8326C975.397 48.2783 972.986 49.7457 969.876 49.7457C964.636 49.7457 960.827 45.6579 960.827 40.1375ZM976.69 40.1375C976.69 36.0497 974.069 33.1847 970.226 33.1847C966.522 33.1847 963.762 36.1894 963.762 40.1375C963.762 44.1555 966.522 47.1253 970.226 47.1253C974.034 47.1253 976.69 44.2603 976.69 40.1375ZM983.351 49.3614V30.9486H986.146V33.6389C987.334 31.9269 989.431 30.5642 992.016 30.5642V33.3244C988.662 33.3594 986.321 35.6304 986.321 38.2508V49.3614L983.351 49.3614ZM991.76 40.1725C991.76 34.8268 995.848 30.5293 1001.05 30.5293C1006.61 30.5293 1010.14 34.8967 1010.14 39.7532C1010.14 40.2773 1010.1 40.9062 1010.07 41.2556H994.765C995.289 44.6796 997.979 46.9856 1001.37 46.9856C1004.37 46.9856 1006.05 45.8326 1006.96 43.7013L1009.54 45.2735C1008.18 47.894 1005.63 49.7807 1001.26 49.7807C995.603 49.7807 991.76 45.6579 991.76 40.1725ZM1001.16 33.1148C998.049 33.1148 995.359 35.1762 994.8 38.6701H1007.1C1006.64 35.2111 1004.23 33.1148 1001.16 33.1148Z" fill="#A4A4A4"/>
<path d="M945.738 60.5475C945.6 60.5079 945.483 60.4472 945.388 60.3653C945.189 60.1906 945.023 59.8494 944.892 59.3417C944.843 59.1588 944.804 59.0224 944.774 58.9323C944.662 58.5911 944.511 58.355 944.321 58.2239C944.132 58.0929 943.844 58.0274 943.459 58.0274C943.377 58.0274 943.246 58.0315 943.066 58.0397L943.038 58.0438V60.0378L943.181 60.1565L943.66 60.1974V60.5414H941.666V60.1974L942.141 60.1565L942.284 60.0378V55.4193L942.141 55.3005L941.666 55.2514V54.9157H943.803C944.488 54.9157 944.996 55.0392 945.326 55.2862C945.657 55.5332 945.822 55.912 945.822 56.4224C945.822 56.7854 945.709 57.0836 945.482 57.317C945.255 57.5504 944.917 57.7162 944.467 57.8145C944.677 57.8718 944.853 57.9462 944.995 58.0376C945.137 58.1291 945.249 58.243 945.331 58.3795C945.423 58.5297 945.502 58.7501 945.568 59.0408C945.633 59.3315 945.685 59.5246 945.724 59.6201C945.808 59.8494 945.924 60.0057 946.072 60.0889C946.219 60.1722 946.466 60.2138 946.813 60.2138H946.886V60.5332C946.761 60.5578 946.645 60.5762 946.538 60.5885C946.432 60.6007 946.331 60.6069 946.235 60.6069C946.042 60.6069 945.876 60.5871 945.738 60.5475ZM944.632 57.3723C944.869 57.1894 944.987 56.896 944.987 56.492C944.987 56.0744 944.865 55.7714 944.622 55.583C944.379 55.3947 943.986 55.3005 943.443 55.3005H943.038V57.6384C943.122 57.6412 943.203 57.6432 943.279 57.6446C943.356 57.6459 943.429 57.6466 943.5 57.6466C944.019 57.6466 944.396 57.5552 944.632 57.3723ZM947.055 60.0439C946.71 59.6631 946.537 59.167 946.537 58.5556C946.537 57.9278 946.718 57.4153 947.08 57.0181C947.441 56.621 947.906 56.4224 948.474 56.4224C948.938 56.4224 949.306 56.5705 949.577 56.8666C949.849 57.1628 949.985 57.5661 949.985 58.0765C949.985 58.1448 949.984 58.1966 949.983 58.2321C949.981 58.2676 949.978 58.3017 949.972 58.3345H947.258V58.4287C947.258 58.9555 947.385 59.3724 947.639 59.6795C947.892 59.9866 948.235 60.1401 948.666 60.1401C948.866 60.1401 949.072 60.1005 949.287 60.0214C949.501 59.9422 949.734 59.8194 949.985 59.6529V60.1155C949.736 60.2793 949.478 60.4035 949.211 60.4881C948.943 60.5728 948.675 60.6151 948.404 60.6151C947.85 60.6151 947.401 60.4247 947.055 60.0439ZM949.235 57.8513C949.235 57.5129 949.161 57.2536 949.012 57.0734C948.864 56.8933 948.647 56.8032 948.363 56.8032C948.085 56.8032 947.844 56.9144 947.641 57.1369C947.437 57.3593 947.323 57.6412 947.299 57.9824H949.235L949.235 57.8513ZM950.71 60.3039C950.515 60.1074 950.418 59.8481 950.418 59.526C950.418 59.1684 950.564 58.8872 950.858 58.6825C951.151 58.4778 951.821 58.2499 952.866 57.9987V57.7326C952.866 57.3805 952.809 57.1362 952.694 56.9997C952.58 56.8632 952.38 56.795 952.096 56.795C951.99 56.795 951.885 56.8059 951.781 56.8277C951.677 56.8496 951.57 56.8823 951.458 56.926V57.6303H950.88C950.779 57.6303 950.71 57.6118 950.674 57.575C950.637 57.5381 950.618 57.4706 950.618 57.3723C950.618 57.0994 950.776 56.8728 951.091 56.6926C951.406 56.5125 951.814 56.4224 952.313 56.4224C952.753 56.4224 953.072 56.518 953.271 56.709C953.471 56.9001 953.57 57.2072 953.57 57.6303V60.0623L953.714 60.1975L954.156 60.2384V60.5414H952.977L952.866 60.0542C952.596 60.2398 952.348 60.3769 952.123 60.4656C951.898 60.5544 951.687 60.5987 951.49 60.5987C951.166 60.5987 950.906 60.5004 950.71 60.3039ZM952.279 60.0541C952.449 59.9914 952.645 59.8972 952.866 59.7716V58.2936C952.165 58.4874 951.704 58.6648 951.484 58.8258C951.265 58.9869 951.155 59.1984 951.155 59.4605C951.155 59.6706 951.215 59.8378 951.337 59.962C951.458 60.0862 951.621 60.1483 951.826 60.1483C951.957 60.1483 952.108 60.1169 952.279 60.0541ZM954.269 60.5414V60.2384L954.765 60.1974L954.908 60.0623V54.932H954.261V54.67L955.285 54.3711H955.604V60.0623L955.756 60.1974L956.235 60.2384V60.5414H954.269ZM958.452 60.5414V60.1974L958.927 60.1565L959.07 60.0378V55.4193L958.927 55.3005L958.452 55.2514V54.9157H962.468V56.1399H961.997L961.879 55.4275L961.764 55.3005H959.823V57.4214H961.199L961.318 57.3027L961.4 56.6926H961.797V58.5392H961.4L961.318 57.9332L961.199 57.8063H959.823V60.1565H962.071L962.19 60.0214L962.333 59.1738H962.767V60.5414L958.452 60.5414ZM963.587 60.5721C963.403 60.5434 963.233 60.4991 963.077 60.439V59.3499H963.479L963.581 60.0623C963.698 60.1306 963.816 60.1811 963.935 60.2138C964.054 60.2466 964.173 60.263 964.293 60.263C964.531 60.263 964.721 60.2009 964.865 60.0767C965.008 59.9525 965.08 59.7894 965.08 59.5874C965.08 59.4181 965.03 59.2782 964.932 59.1677C964.834 59.0571 964.599 58.9173 964.228 58.748C963.808 58.5597 963.522 58.3822 963.37 58.2157C963.219 58.0492 963.143 57.8432 963.143 57.5975C963.143 57.2235 963.273 56.9342 963.532 56.7295C963.791 56.5247 964.157 56.4224 964.629 56.4224C964.817 56.4224 964.993 56.4381 965.155 56.4695C965.318 56.5009 965.47 56.5466 965.612 56.6066V57.5565H965.198L965.133 56.9628C965.021 56.9028 964.914 56.8578 964.813 56.8277C964.712 56.7977 964.611 56.7827 964.51 56.7827C964.292 56.7827 964.121 56.8359 963.999 56.9424C963.876 57.0488 963.814 57.1976 963.814 57.3887C963.814 57.5442 963.863 57.6766 963.962 57.7858C964.06 57.895 964.248 58.0165 964.527 58.1502C964.57 58.1721 964.637 58.2034 964.727 58.2444C965.044 58.3891 965.273 58.5201 965.415 58.6374C965.519 58.7193 965.598 58.8224 965.653 58.9466C965.707 59.0708 965.735 59.2079 965.735 59.3581C965.735 59.7511 965.596 60.0589 965.319 60.2814C965.042 60.5038 964.658 60.615 964.166 60.615C963.964 60.615 963.771 60.6007 963.587 60.5721ZM966.731 60.3837C966.601 60.2623 966.536 60.0405 966.536 59.7184V57.012H966.008V56.75L966.561 56.5084L966.921 55.7264H967.232V56.6189H968.51V57.012H967.232V59.223C967.232 59.586 967.283 59.8296 967.384 59.9538C967.485 60.078 967.666 60.1401 967.928 60.1401C968.018 60.1401 968.112 60.1347 968.209 60.1237C968.306 60.1128 968.406 60.0951 968.51 60.0705V60.3817C968.318 60.4417 968.13 60.4875 967.945 60.5189C967.759 60.5502 967.58 60.5659 967.408 60.5659C967.086 60.5659 966.86 60.5052 966.731 60.3837ZM968.965 60.3039C968.77 60.1074 968.672 59.8481 968.672 59.526C968.672 59.1684 968.819 58.8872 969.112 58.6825C969.406 58.4778 970.075 58.2499 971.121 57.9987V57.7326C971.121 57.3805 971.063 57.1362 970.949 56.9997C970.834 56.8632 970.635 56.795 970.351 56.795C970.244 56.795 970.139 56.8059 970.036 56.8277C969.932 56.8496 969.824 56.8823 969.712 56.926V57.6303H969.135C969.034 57.6303 968.965 57.6118 968.928 57.575C968.891 57.5381 968.873 57.4706 968.873 57.3723C968.873 57.0994 969.03 56.8728 969.346 56.6926C969.661 56.5125 970.068 56.4224 970.568 56.4224C971.007 56.4224 971.327 56.518 971.526 56.709C971.725 56.9001 971.825 57.2072 971.825 57.6303V60.0623L971.968 60.1975L972.41 60.2384V60.5414H971.231L971.121 60.0542C970.85 60.2398 970.603 60.3769 970.378 60.4656C970.152 60.5544 969.941 60.5987 969.745 60.5987C969.42 60.5987 969.16 60.5004 968.965 60.3039ZM970.533 60.0541C970.704 59.9914 970.9 59.8972 971.121 59.7716V58.2936C970.419 58.4874 969.959 58.6648 969.739 58.8258C969.519 58.9869 969.409 59.1984 969.409 59.4605C969.409 59.6706 969.47 59.8378 969.591 59.962C969.713 60.0862 969.876 60.1483 970.081 60.1483C970.212 60.1483 970.363 60.1169 970.533 60.0541ZM973.222 60.3837C973.092 60.2623 973.028 60.0405 973.028 59.7184V57.012H972.499V56.75L973.052 56.5084L973.412 55.7264H973.724V56.6189H975.001V57.012H973.724V59.223C973.724 59.586 973.774 59.8296 973.875 59.9538C973.976 60.078 974.158 60.1401 974.42 60.1401C974.51 60.1401 974.603 60.1347 974.7 60.1237C974.797 60.1128 974.897 60.0951 975.001 60.0705V60.3817C974.81 60.4417 974.622 60.4875 974.436 60.5189C974.25 60.5502 974.072 60.5659 973.9 60.5659C973.578 60.5659 973.352 60.5052 973.222 60.3837ZM975.641 60.0439C975.295 59.6631 975.123 59.167 975.123 58.5556C975.123 57.9278 975.304 57.4153 975.665 57.0181C976.027 56.621 976.492 56.4224 977.059 56.4224C977.524 56.4224 977.891 56.5705 978.163 56.8666C978.435 57.1628 978.57 57.5661 978.57 58.0765C978.57 58.1448 978.57 58.1966 978.568 58.2321C978.567 58.2676 978.563 58.3017 978.558 58.3345H975.843V58.4287C975.843 58.9555 975.97 59.3724 976.224 59.6795C976.478 59.9866 976.821 60.1401 977.252 60.1401C977.451 60.1401 977.658 60.1005 977.872 60.0214C978.086 59.9422 978.319 59.8194 978.57 59.6529V60.1155C978.322 60.2793 978.064 60.4035 977.796 60.4881C977.529 60.5728 977.26 60.6151 976.99 60.6151C976.436 60.6151 975.986 60.4247 975.641 60.0439ZM977.821 57.8513C977.821 57.5129 977.747 57.2536 977.598 57.0734C977.449 56.8933 977.233 56.8032 976.949 56.8032C976.671 56.8032 976.43 56.9144 976.226 57.1369C976.023 57.3593 975.909 57.6412 975.884 57.9824H977.821L977.821 57.8513ZM981.891 60.5741C981.633 60.5277 981.404 60.4609 981.205 60.3735V58.8995H981.7L981.799 59.8617L981.909 60.005C982.032 60.0678 982.173 60.1156 982.331 60.1483C982.489 60.1811 982.661 60.1974 982.847 60.1974C983.237 60.1974 983.546 60.1067 983.774 59.9252C984.002 59.7436 984.116 59.4987 984.116 59.1902C984.116 58.7617 983.715 58.3768 982.912 58.0356C982.825 57.9974 982.758 57.9687 982.712 57.9496C982.138 57.7012 981.759 57.4699 981.573 57.2556C981.388 57.0413 981.295 56.7636 981.295 56.4224C981.295 55.942 981.472 55.5537 981.825 55.2575C982.179 54.9614 982.648 54.8133 983.232 54.8133C983.466 54.8133 983.702 54.8331 983.938 54.8727C984.174 54.9122 984.415 54.9716 984.661 55.0508V56.3487H984.223L984.096 55.5503L983.973 55.4111C983.866 55.351 983.75 55.3067 983.625 55.278C983.499 55.2494 983.363 55.235 983.215 55.235C982.866 55.235 982.589 55.3258 982.384 55.5073C982.179 55.6888 982.077 55.9352 982.077 56.2463C982.077 56.4729 982.149 56.6606 982.292 56.8093C982.435 56.9581 982.755 57.1376 983.252 57.3477C983.299 57.3669 983.368 57.3941 983.461 57.4296C983.95 57.6207 984.302 57.8227 984.517 58.0356C984.64 58.1557 984.732 58.2936 984.794 58.4491C984.855 58.6047 984.886 58.774 984.886 58.9569C984.886 59.4618 984.688 59.8692 984.292 60.179C983.896 60.4888 983.371 60.6438 982.716 60.6438C982.424 60.6438 982.149 60.6205 981.891 60.5741ZM985.943 60.0296C985.579 59.6392 985.397 59.1356 985.397 58.5187C985.397 57.9018 985.577 57.3982 985.939 57.0079C986.301 56.6176 986.768 56.4224 987.341 56.4224C987.912 56.4224 988.38 56.6182 988.746 57.0099C989.112 57.4016 989.294 57.9046 989.294 58.5187C989.294 59.1329 989.111 59.6358 988.744 60.0275C988.377 60.4192 987.909 60.6151 987.341 60.6151C986.774 60.6151 986.308 60.4199 985.943 60.0296ZM988.189 59.7839C988.402 59.47 988.508 59.0483 988.508 58.5187C988.508 57.9947 988.401 57.5743 988.187 57.2577C987.973 56.941 987.691 56.7827 987.341 56.7827C986.992 56.7827 986.712 56.9403 986.5 57.2556C986.288 57.5709 986.183 57.9919 986.183 58.5187C986.183 59.0455 986.289 59.4666 986.502 59.7819C986.715 60.0971 986.995 60.2548 987.341 60.2548C987.693 60.2548 987.976 60.0978 988.189 59.7839ZM989.559 60.5414V60.2384L990.055 60.1974L990.198 60.0623V54.932H989.551V54.67L990.575 54.3711H990.894V60.0623L991.046 60.1974L991.525 60.2384V60.5414H989.559ZM992.517 60.2937C992.324 60.0739 992.228 59.7566 992.228 59.3417V56.9956H991.63V56.7336L992.605 56.4224H992.924V59.1984C992.924 59.5041 992.989 59.7286 993.12 59.8719C993.252 60.0152 993.456 60.0869 993.735 60.0869C993.89 60.0869 994.048 60.0664 994.208 60.0255C994.367 59.9845 994.534 59.9218 994.709 59.8371V56.9956H994.111V56.7336L995.086 56.4224H995.405V60.0623L995.557 60.1974L995.95 60.2384V60.5414H994.709V60.0705C994.447 60.2589 994.205 60.3981 993.982 60.4881C993.76 60.5782 993.549 60.6233 993.35 60.6233C992.987 60.6233 992.709 60.5134 992.517 60.2937ZM996.835 60.3837C996.705 60.2623 996.641 60.0405 996.641 59.7184V57.012H996.112V56.75L996.665 56.5084L997.025 55.7264H997.337V56.6189H998.614V57.012H997.337V59.223C997.337 59.586 997.387 59.8296 997.488 59.9538C997.589 60.078 997.771 60.1401 998.033 60.1401C998.123 60.1401 998.216 60.1347 998.313 60.1237C998.41 60.1128 998.51 60.0951 998.614 60.0705V60.3817C998.423 60.4417 998.235 60.4875 998.049 60.5189C997.863 60.5502 997.685 60.5659 997.513 60.5659C997.191 60.5659 996.965 60.5052 996.835 60.3837ZM999.373 55.4315C999.278 55.3387 999.231 55.2255 999.231 55.0917C999.231 54.9552 999.278 54.8399 999.373 54.7457C999.467 54.6516 999.581 54.6045 999.714 54.6045C999.851 54.6045 999.966 54.6522 1000.06 54.7478C1000.15 54.8433 1000.2 54.9579 1000.2 55.0917C1000.2 55.2254 1000.15 55.3387 1000.06 55.4315C999.966 55.5243 999.851 55.5707 999.714 55.5707C999.581 55.5707 999.467 55.5244 999.373 55.4315ZM998.719 60.5414V60.2384L999.162 60.1974L999.305 60.0623V57.0284H998.719V56.7663L999.682 56.4674H1000.01V60.0623L1000.15 60.1975L1000.6 60.2384V60.5414L998.719 60.5414ZM1001.35 60.0296C1000.98 59.6392 1000.8 59.1356 1000.8 58.5187C1000.8 57.9018 1000.98 57.3982 1001.34 57.0079C1001.71 56.6176 1002.17 56.4224 1002.75 56.4224C1003.32 56.4224 1003.79 56.6182 1004.15 57.0099C1004.52 57.4016 1004.7 57.9046 1004.7 58.5187C1004.7 59.1329 1004.52 59.6358 1004.15 60.0275C1003.78 60.4192 1003.32 60.6151 1002.75 60.6151C1002.18 60.6151 1001.71 60.4199 1001.35 60.0296ZM1003.59 59.7839C1003.81 59.47 1003.91 59.0483 1003.91 58.5187C1003.91 57.9947 1003.81 57.5743 1003.59 57.2577C1003.38 56.941 1003.1 56.7827 1002.75 56.7827C1002.4 56.7827 1002.12 56.9403 1001.91 57.2556C1001.69 57.5709 1001.59 57.9919 1001.59 58.5187C1001.59 59.0455 1001.7 59.4666 1001.91 59.7819C1002.12 60.0971 1002.4 60.2548 1002.75 60.2548C1003.1 60.2548 1003.38 60.0978 1003.59 59.7839ZM1004.98 60.5414V60.2384L1005.44 60.1974L1005.58 60.0623V57.0284H1004.98V56.7663L1005.96 56.4674H1006.28V56.926C1006.61 56.7404 1006.88 56.6101 1007.09 56.535C1007.29 56.4599 1007.47 56.4224 1007.63 56.4224C1007.99 56.4224 1008.27 56.5316 1008.47 56.7499C1008.66 56.9683 1008.76 57.2849 1008.76 57.6998V60.0623L1008.9 60.1974L1009.35 60.2384V60.5414H1007.52V60.2384L1007.92 60.1974L1008.06 60.0623V57.8431C1008.06 57.5292 1008 57.3068 1007.87 57.1758C1007.74 57.0447 1007.52 56.9792 1007.21 56.9792C1007.08 56.9792 1006.93 57.0017 1006.78 57.0468C1006.62 57.0918 1006.46 57.1607 1006.28 57.2536V60.0623L1006.42 60.1974L1006.82 60.2384V60.5414L1004.98 60.5414Z" fill="#A4A4A4"/>
<path fill-rule="evenodd" clip-rule="evenodd" d="M858 27H892.939V61.939H858V27ZM884.004 35.9348L866.933 35.9329V53.0051L866.928 53.0105L866.928 53.0117H884.012L884.01 35.9287L884.004 35.9348Z" fill="#A4A4A4"/>
<rect x="548.5" y="0.5" width="223" height="87" fill="white" stroke="white"/>
<path d="M631.07 48.4943V28.409H636.701L640.293 39.642L640.607 40.7253L641.291 43.4195L642.189 40.1979L645.881 28.409H651.484V48.4943H647.749V36.3205C647.749 36.0449 647.751 35.7693 647.756 35.4937C647.761 35.2181 647.806 34.035 647.891 31.9442C647.374 33.9041 646.96 35.4088 646.649 36.4582L646.571 36.7216C646.507 36.9326 646.448 37.122 646.395 37.2899L642.774 48.4943H639.78L636.159 37.2899L634.634 31.9442C634.748 34.149 634.805 35.6078 634.805 36.3205V48.4943L631.07 48.4943ZM655.521 47.5606C654.685 46.7481 654.267 45.6053 654.267 44.1323C654.267 42.5357 654.787 41.3193 655.827 40.483C656.868 39.6467 658.377 39.2191 660.353 39.2001L663.675 39.143V38.359C663.675 37.3516 663.499 36.6033 663.147 36.1138C662.796 35.6244 662.221 35.3797 661.423 35.3797C660.681 35.3797 660.137 35.5484 659.79 35.8857C659.444 36.2231 659.227 36.7814 659.142 37.5607L654.965 37.3611C655.222 35.8596 655.908 34.7216 657.025 33.9471C658.142 33.1725 659.664 32.7853 661.594 32.7853C663.542 32.7853 665.043 33.2652 666.098 34.225C667.153 35.1849 667.681 36.5486 667.681 38.3162V43.9327C667.681 44.7975 667.778 45.3939 667.973 45.7217C668.168 46.0496 668.493 46.2135 668.949 46.2135C669.253 46.2135 669.548 46.185 669.833 46.128V48.2948C669.595 48.3518 669.382 48.4041 669.192 48.4516C669.002 48.4991 668.811 48.5371 668.621 48.5656C668.431 48.5941 668.229 48.6179 668.016 48.6369C667.802 48.6559 667.552 48.6654 667.267 48.6654C666.26 48.6654 665.516 48.4183 665.036 47.9241C664.556 47.43 664.269 46.703 664.174 45.7431H664.088C662.967 47.7673 661.275 48.7795 659.013 48.7795C657.521 48.7795 656.357 48.3732 655.521 47.5606ZM662.014 45.4723C662.532 45.1302 662.938 44.6574 663.233 44.0539C663.528 43.4504 663.675 42.8113 663.675 42.1366V41.3526L661.622 41.3811C660.691 41.4191 660.03 41.5212 659.641 41.6876C659.251 41.8539 658.954 42.1081 658.75 42.4502C658.545 42.7923 658.443 43.2485 658.443 43.8187C658.443 44.5505 658.612 45.0945 658.949 45.4509C659.287 45.8073 659.736 45.9855 660.296 45.9855C660.924 45.9855 661.496 45.8144 662.014 45.4723ZM671.661 48.4943V36.6912C671.661 35.8454 671.649 35.1397 671.625 34.5743C671.602 34.0088 671.575 33.5075 671.547 33.0704H675.367C675.396 33.2414 675.434 33.7617 675.481 34.6313C675.529 35.5009 675.553 36.0782 675.553 36.3633H675.61C675.999 35.2799 676.346 34.5173 676.65 34.0753C676.954 33.6334 677.315 33.3056 677.734 33.0917C678.152 32.8779 678.674 32.771 679.302 32.771C679.815 32.771 680.228 32.8423 680.542 32.9848V36.3348C679.896 36.1922 679.325 36.1209 678.831 36.1209C677.833 36.1209 677.056 36.5248 676.501 37.3326C675.945 38.1404 675.667 39.3378 675.667 40.9249V48.4943L671.661 48.4943ZM684.223 47.7887C683.586 47.1472 683.268 46.1755 683.268 44.8736V35.7788H681.315V33.0704H683.467L684.722 29.4496H687.231V33.0704H690.153V35.7788H687.231V43.7902C687.231 44.5409 687.373 45.0945 687.658 45.4509C687.943 45.8073 688.385 45.9854 688.984 45.9854C689.298 45.9854 689.744 45.9189 690.324 45.7859V48.2663C689.336 48.5894 688.21 48.7509 686.946 48.7509C685.767 48.7509 684.86 48.4302 684.223 47.7887ZM692.694 30.2906V27.3398H696.699V30.2906H692.694ZM692.694 48.4943V33.0704H696.699V48.4943H692.694ZM700.78 48.4943V36.5201C700.78 35.6933 700.768 35.0162 700.744 34.4887C700.72 33.9613 700.694 33.4885 700.665 33.0704H704.486C704.514 33.2509 704.552 33.7332 704.6 34.5173C704.647 35.3013 704.671 35.8406 704.671 36.1352H704.728C705.27 34.9568 705.949 34.1015 706.767 33.5693C707.584 33.0371 708.558 32.771 709.689 32.771C711.324 32.771 712.578 33.2747 713.452 34.2821C714.327 35.2894 714.764 36.7624 714.764 38.7011V48.4943H710.772V39.8415C710.772 37.1331 709.855 35.7788 708.021 35.7788C707.052 35.7788 706.27 36.1946 705.676 37.0262C705.082 37.8577 704.785 38.9245 704.785 40.2264V48.4943H700.78ZM719.742 46.6412C718.374 45.2157 717.689 43.258 717.689 40.7681C717.689 38.2877 718.374 36.3372 719.742 34.9164C721.11 33.4957 723.025 32.7853 725.487 32.7853C728.005 32.7853 729.927 33.4719 731.253 34.8451C732.579 36.2184 733.242 38.1927 733.242 40.7681C733.242 43.2675 732.548 45.2276 731.16 46.6483C729.773 48.0691 727.853 48.7795 725.401 48.7795C722.997 48.7795 721.11 48.0667 719.742 46.6412ZM729.051 40.7681C729.051 38.934 728.751 37.6035 728.152 36.7767C727.554 35.9499 726.684 35.5365 725.544 35.5365C723.111 35.5365 721.895 37.2804 721.895 40.7681C721.895 42.4882 722.191 43.7973 722.785 44.6954C723.379 45.5934 724.237 46.0425 725.358 46.0425C727.82 46.0425 729.051 44.2844 729.051 40.7681Z" fill="#A4A4A4"/>
<path opacity="0.595853" d="M668.896 60.246C668.4 59.6951 668.152 58.9386 668.152 57.9764C668.152 57.0292 668.397 56.2776 668.885 55.7218C669.374 55.1659 670.004 54.888 670.777 54.888C671.276 54.888 671.703 55.0251 672.06 55.2992C672.416 55.5734 672.682 55.9124 672.856 56.3163L672.011 56.593C671.692 56.0196 671.276 55.733 670.762 55.733C670.274 55.733 669.886 55.9361 669.599 56.3424C669.313 56.7487 669.169 57.2934 669.169 57.9764C669.169 58.6694 669.314 59.2178 669.603 59.6216C669.892 60.0254 670.279 60.2273 670.762 60.2273C671.076 60.2273 671.354 60.1326 671.596 59.9431C671.838 59.7537 672.014 59.5219 672.123 59.2477L673.006 59.5243C672.931 59.7038 672.835 59.8771 672.718 60.0441C672.601 60.2111 672.453 60.3756 672.276 60.5376C672.099 60.6996 671.881 60.8293 671.622 60.9265C671.363 61.0237 671.081 61.0723 670.777 61.0723C670.019 61.0723 669.392 60.7969 668.896 60.246ZM674.64 60.9265C674.403 60.8293 674.211 60.7046 674.064 60.5526C673.917 60.4005 673.795 60.2211 673.697 60.0142C673.6 59.8073 673.533 59.6029 673.495 59.401C673.458 59.1991 673.439 58.9934 673.439 58.784C673.439 58.1409 673.609 57.5975 673.948 57.1538C674.287 56.7101 674.783 56.4883 675.436 56.4883C676.084 56.4883 676.578 56.7101 676.917 57.1538C677.256 57.5975 677.425 58.1409 677.425 58.784C677.425 58.9834 677.406 59.1829 677.369 59.3823C677.332 59.5817 677.266 59.7848 677.171 59.9917C677.076 60.1986 676.957 60.3806 676.812 60.5376C676.667 60.6947 676.477 60.823 676.24 60.9228C676.003 61.0225 675.735 61.0723 675.436 61.0723C675.142 61.0723 674.876 61.0237 674.64 60.9265ZM676.146 59.8983C676.351 59.654 676.453 59.2826 676.453 58.784C676.453 58.2755 676.351 57.9004 676.146 57.6586C675.942 57.4168 675.705 57.2959 675.436 57.2959C675.167 57.2959 674.929 57.4168 674.722 57.6586C674.515 57.9004 674.411 58.2755 674.411 58.784C674.411 59.2826 674.514 59.654 674.718 59.8983C674.922 60.1425 675.162 60.2647 675.436 60.2647C675.705 60.2647 675.942 60.1425 676.146 59.8983ZM678.285 60.9377V54.8281H679.227V60.9377H678.285ZM681.288 60.9265C681.051 60.8293 680.859 60.7046 680.712 60.5526C680.565 60.4005 680.443 60.2211 680.345 60.0142C680.248 59.8073 680.181 59.6029 680.143 59.401C680.106 59.1991 680.087 58.9934 680.087 58.784C680.087 58.1409 680.257 57.5975 680.596 57.1538C680.935 56.7101 681.431 56.4883 682.084 56.4883C682.732 56.4883 683.226 56.7101 683.565 57.1538C683.904 57.5975 684.073 58.1409 684.073 58.784C684.073 58.9834 684.054 59.1829 684.017 59.3823C683.98 59.5817 683.914 59.7848 683.819 59.9917C683.724 60.1986 683.605 60.3806 683.46 60.5376C683.315 60.6947 683.125 60.823 682.888 60.9228C682.651 61.0225 682.383 61.0723 682.084 61.0723C681.79 61.0723 681.524 61.0237 681.288 60.9265ZM682.794 59.8983C682.999 59.654 683.101 59.2826 683.101 58.784C683.101 58.2755 682.999 57.9004 682.794 57.6586C682.59 57.4168 682.353 57.2959 682.084 57.2959C681.815 57.2959 681.577 57.4168 681.37 57.6586C681.163 57.9004 681.059 58.2755 681.059 58.784C681.059 59.2826 681.162 59.654 681.366 59.8983C681.57 60.1425 681.81 60.2647 682.084 60.2647C682.353 60.2647 682.59 60.1425 682.794 59.8983ZM684.851 60.9377V56.6229H685.763V57.0865C685.858 56.927 685.994 56.7874 686.171 56.6677C686.348 56.5481 686.558 56.4883 686.803 56.4883C687.032 56.4883 687.219 56.5207 687.363 56.5855V57.4455C687.174 57.3856 686.987 57.3557 686.803 57.3557C686.479 57.3557 686.231 57.4816 686.059 57.7334C685.887 57.9851 685.801 58.3204 685.801 58.7392V60.9377H684.851ZM688.287 60.7956C687.96 60.6112 687.71 60.3594 687.535 60.0403L688.216 59.644C688.515 60.0827 688.904 60.3021 689.383 60.3021C689.617 60.3021 689.803 60.256 689.94 60.1637C690.077 60.0715 690.145 59.9481 690.145 59.7936C690.145 59.6689 690.089 59.5593 689.977 59.4645C689.865 59.3698 689.746 59.2988 689.622 59.2514C689.497 59.2041 689.31 59.1405 689.061 59.0607C689.016 59.0458 688.984 59.0358 688.964 59.0308C688.784 58.971 688.634 58.9124 688.511 58.8551C688.389 58.7978 688.261 58.7205 688.126 58.6233C687.992 58.5261 687.889 58.4039 687.82 58.2568C687.75 58.1098 687.715 57.939 687.715 57.7446C687.715 57.3657 687.874 57.0616 688.194 56.8323C688.513 56.6029 688.909 56.4883 689.383 56.4883C689.737 56.4883 690.071 56.5818 690.385 56.7687C690.699 56.9557 690.933 57.1937 691.088 57.4829L690.459 57.8642C690.165 57.4604 689.809 57.2585 689.39 57.2585C689.161 57.2585 688.985 57.3046 688.863 57.3969C688.741 57.4891 688.68 57.61 688.68 57.7595C688.68 57.8842 688.733 57.9951 688.84 58.0923C688.948 58.1895 689.059 58.2606 689.173 58.3054C689.288 58.3503 689.45 58.4076 689.659 58.4774C689.714 58.4924 689.754 58.5049 689.779 58.5148C690.666 58.799 691.11 59.2277 691.11 59.8011C691.11 60.155 690.962 60.4554 690.665 60.7022C690.368 60.9489 689.948 61.0723 689.405 61.0723C688.986 61.0723 688.614 60.9801 688.287 60.7956ZM694.673 60.9265C694.436 60.8293 694.245 60.7046 694.097 60.5526C693.95 60.4005 693.828 60.2211 693.731 60.0142C693.634 59.8073 693.567 59.6029 693.529 59.401C693.492 59.1991 693.473 58.9934 693.473 58.784C693.473 58.1409 693.643 57.5975 693.982 57.1538C694.321 56.7101 694.817 56.4883 695.47 56.4883C696.118 56.4883 696.611 56.7101 696.95 57.1538C697.289 57.5975 697.459 58.1409 697.459 58.784C697.459 58.9834 697.44 59.1829 697.403 59.3823C697.365 59.5817 697.299 59.7848 697.205 59.9917C697.11 60.1986 696.99 60.3806 696.846 60.5376C696.701 60.6947 696.51 60.823 696.274 60.9228C696.037 61.0225 695.769 61.0723 695.47 61.0723C695.176 61.0723 694.91 61.0237 694.673 60.9265ZM696.18 59.8983C696.385 59.654 696.487 59.2826 696.487 58.784C696.487 58.2755 696.385 57.9004 696.18 57.6586C695.976 57.4168 695.739 57.2959 695.47 57.2959C695.2 57.2959 694.962 57.4168 694.756 57.6586C694.549 57.9004 694.445 58.2755 694.445 58.784C694.445 59.2826 694.547 59.654 694.752 59.8983C694.956 60.1425 695.196 60.2647 695.47 60.2647C695.739 60.2647 695.976 60.1425 696.18 59.8983ZM698.558 60.9377V57.4305H697.9V56.6229H698.558V56.1592C698.558 55.7155 698.669 55.3828 698.891 55.1609C699.113 54.9391 699.426 54.8281 699.829 54.8281H700.51V55.6283H699.964C699.809 55.6283 699.696 55.6756 699.624 55.7704C699.551 55.8651 699.515 56.0171 699.515 56.2265V56.6229H700.413V57.4305H699.515V60.9377H698.558ZM702.88 62.7025V61.9099H703.015C703.239 61.9099 703.423 61.8612 703.565 61.764C703.707 61.6668 703.82 61.4986 703.905 61.2593L704.047 60.833L702.432 56.6229H703.471L704.212 58.8438C704.336 59.2526 704.431 59.5842 704.496 59.8384H704.526C704.551 59.7487 704.643 59.4172 704.802 58.8438L705.483 56.6229H706.515L704.728 61.506C704.568 61.9448 704.362 62.2539 704.111 62.4333C703.859 62.6128 703.546 62.7025 703.172 62.7025L702.88 62.7025ZM708.037 60.9265C707.8 60.8293 707.608 60.7046 707.461 60.5526C707.314 60.4005 707.192 60.2211 707.094 60.0142C706.997 59.8073 706.93 59.6029 706.892 59.401C706.855 59.1991 706.836 58.9934 706.836 58.784C706.836 58.1409 707.006 57.5975 707.345 57.1538C707.684 56.7101 708.18 56.4883 708.833 56.4883C709.481 56.4883 709.975 56.7101 710.314 57.1538C710.653 57.5975 710.822 58.1409 710.822 58.784C710.822 58.9834 710.803 59.1829 710.766 59.3823C710.729 59.5817 710.663 59.7848 710.568 59.9917C710.473 60.1986 710.354 60.3806 710.209 60.5376C710.064 60.6947 709.874 60.823 709.637 60.9228C709.4 61.0225 709.132 61.0723 708.833 61.0723C708.539 61.0723 708.273 61.0237 708.037 60.9265ZM709.543 59.8983C709.748 59.654 709.85 59.2826 709.85 58.784C709.85 58.2755 709.748 57.9004 709.543 57.6586C709.339 57.4168 709.102 57.2959 708.833 57.2959C708.564 57.2959 708.326 57.4168 708.119 57.6586C707.912 57.9004 707.809 58.2755 707.809 58.784C707.809 59.2826 707.911 59.654 708.115 59.8983C708.32 60.1425 708.559 60.2647 708.833 60.2647C709.102 60.2647 709.339 60.1425 709.543 59.8983ZM712.501 60.9938C712.344 60.9414 712.191 60.8567 712.041 60.7395C711.892 60.6224 711.772 60.4466 711.682 60.2123C711.592 59.978 711.548 59.6988 711.548 59.3748V56.6229H712.497V59.2551C712.497 59.9282 712.734 60.2647 713.208 60.2647C713.492 60.2647 713.714 60.1438 713.873 59.902C714.033 59.6602 714.113 59.3723 714.113 59.0383V56.6229H715.055V60.9377H714.142V60.4367H714.135C714.065 60.5912 713.932 60.7358 713.735 60.8704C713.538 61.005 713.292 61.0723 712.998 61.0723C712.824 61.0723 712.658 61.0461 712.501 60.9938ZM716.087 60.9377V56.6229H716.999V57.0865C717.094 56.927 717.23 56.7874 717.407 56.6677C717.584 56.5481 717.794 56.4883 718.038 56.4883C718.268 56.4883 718.455 56.5207 718.599 56.5855V57.4455C718.41 57.3856 718.223 57.3557 718.038 57.3557C717.714 57.3557 717.466 57.4816 717.294 57.7334C717.122 57.9851 717.036 58.3204 717.036 58.7392V60.9377H716.087ZM721.045 60.9377V54.8281H721.987V60.9377H721.045ZM723.146 55.9797V54.9403H724.163V55.9797H723.146ZM723.191 60.9377V56.6229H724.126V60.9377H723.191ZM725.569 60.9377V57.4305H724.911V56.6229H725.569V56.1592C725.569 55.7155 725.68 55.3828 725.902 55.1609C726.124 54.9391 726.436 54.8281 726.84 54.8281H727.521V55.6283H726.975C726.82 55.6283 726.707 55.6756 726.635 55.7704C726.562 55.8651 726.526 56.0171 726.526 56.2265V56.6229H727.423V57.4305H726.526V60.9377H725.569ZM728.362 60.4442C727.981 60.0254 727.79 59.4645 727.79 58.7616C727.79 58.0686 727.981 57.5165 728.362 57.1052C728.743 56.6939 729.223 56.4883 729.801 56.4883C730.37 56.4883 730.838 56.6952 731.207 57.1089C731.576 57.5227 731.761 58.0612 731.761 58.7242C731.761 58.8538 731.753 58.981 731.738 59.1056H728.747C728.747 59.4346 728.846 59.7175 729.042 59.9543C729.239 60.1912 729.51 60.3096 729.854 60.3096C730.093 60.3096 730.304 60.251 730.486 60.1338C730.668 60.0167 730.806 59.8659 730.901 59.6814L731.693 59.9506C731.554 60.2697 731.327 60.5364 731.013 60.7508C730.699 60.9651 730.308 61.0723 729.839 61.0723C729.236 61.0723 728.743 60.8629 728.362 60.4442ZM730.534 57.5987C730.36 57.3669 730.116 57.251 729.801 57.251C729.487 57.251 729.237 57.3694 729.05 57.6062C728.863 57.843 728.767 58.121 728.762 58.44H730.796C730.796 58.111 730.709 57.8306 730.534 57.5987Z" fill="#A4A4A4"/>
<path d="M664.532 5.94358V35.726C664.532 36.011 664.385 36.2747 664.146 36.4193C663.907 36.5639 663.612 36.5677 663.369 36.4295L656.321 32.4049C656.072 32.263 655.918 31.9937 655.917 31.7013V1.91893C655.918 1.63391 656.064 1.3702 656.303 1.22564C656.542 1.08107 656.838 1.07718 657.08 1.21542L664.129 5.24007C664.378 5.38188 664.532 5.65119 664.532 5.94358Z" fill="#A4A4A4"/>
<path d="M676.019 5.94456V35.727C676.018 36.012 675.872 36.2757 675.633 36.4203C675.394 36.5648 675.098 36.5687 674.856 36.4305L667.807 32.4058C667.558 32.264 667.404 31.9947 667.404 31.7023V1.9199C667.404 1.63488 667.551 1.37118 667.79 1.22661C668.029 1.08204 668.324 1.07815 668.567 1.21639L675.615 5.24104C675.864 5.38285 676.018 5.65216 676.019 5.94456Z" fill="#A4A4A4"/>
<path d="M687.503 5.94456V35.727C687.503 36.012 687.356 36.2757 687.117 36.4203C686.878 36.5648 686.582 36.5687 686.34 36.4305L679.292 32.4058C679.043 32.264 678.888 31.9947 678.888 31.7023V1.9199C678.888 1.63488 679.035 1.37118 679.274 1.22661C679.513 1.08204 679.809 1.07815 680.051 1.21639L687.1 5.24104C687.348 5.38285 687.503 5.65216 687.503 5.94456Z" fill="#A4A4A4"/>
<rect x="1096.5" y="0.5" width="223" height="87" fill="white" stroke="white"/>
<path fill-rule="evenodd" clip-rule="evenodd" d="M1148.96 25.1211V32.4863L1128 49.8113V42.4461L1148.96 25.1211Z" fill="#A4A4A4"/>
<path fill-rule="evenodd" clip-rule="evenodd" d="M1148.96 39.5625V46.9277L1128 64.2527V56.8877L1148.96 39.5625Z" fill="#A4A4A4"/>
<path fill-rule="evenodd" clip-rule="evenodd" d="M1158.28 25.1211V32.4863L1137.32 49.8113V42.4461L1158.28 25.1211Z" fill="#A4A4A4"/>
<path fill-rule="evenodd" clip-rule="evenodd" d="M1158.28 39.5625V46.9277L1137.32 64.2527V56.8877L1158.28 39.5625Z" fill="#A4A4A4"/>
<path d="M1173.8 46.8264C1171.53 44.5517 1170.39 41.5889 1170.39 37.9381C1170.39 34.3213 1171.56 31.424 1173.88 29.246C1176.21 27.068 1179.29 25.979 1183.14 25.979C1184.3 25.979 1185.49 26.0756 1186.73 26.269C1187.96 26.4623 1189.23 26.7524 1190.52 27.139V33.0759H1187.96L1187.3 29.3739L1186.77 28.7427C1186.32 28.5493 1185.85 28.4072 1185.37 28.3162C1184.89 28.2252 1184.39 28.1797 1183.87 28.1797C1181.25 28.1797 1179.2 29.0469 1177.7 30.7814C1176.21 32.5158 1175.46 34.9014 1175.46 37.9381C1175.46 41.0544 1176.22 43.4911 1177.75 45.2483C1179.28 47.0055 1181.41 47.8841 1184.13 47.8841C1184.31 47.8841 1184.56 47.8755 1184.89 47.8585C1185.22 47.8414 1185.6 47.8158 1186.04 47.7817V40.6506L1185.49 40.1729L1182.9 40.0023V38.2793H1193.1V40.0023L1191.07 40.1729L1190.52 40.6506V48.8053C1189.15 49.283 1187.81 49.6413 1186.51 49.8801C1185.22 50.1189 1183.94 50.2384 1182.69 50.2384C1179.04 50.2384 1176.08 49.101 1173.8 46.8264ZM1196.34 47.6708C1194.74 46.0615 1193.93 43.9432 1193.93 41.316C1193.93 38.6205 1194.76 36.4567 1196.4 34.8246C1198.05 33.1925 1200.24 32.3765 1202.97 32.3765C1205.66 32.3765 1207.79 33.1868 1209.37 34.8075C1210.95 36.4283 1211.74 38.6205 1211.74 41.3842C1211.74 44.0001 1210.92 46.1041 1209.27 47.6964C1207.62 49.2887 1205.43 50.0848 1202.7 50.0848C1200.07 50.0848 1197.95 49.2802 1196.34 47.6708ZM1205.86 46.434C1206.57 45.2284 1206.93 43.511 1206.93 41.2818C1206.93 39.064 1206.57 37.3353 1205.85 36.0956C1205.13 34.8559 1204.12 34.236 1202.84 34.236C1201.56 34.236 1200.57 34.8445 1199.85 36.0614C1199.13 37.2784 1198.78 38.9844 1198.78 41.1795C1198.78 43.4086 1199.13 45.1431 1199.84 46.3828C1200.55 47.6225 1201.54 48.2423 1202.8 48.2423C1204.12 48.2423 1205.14 47.6395 1205.86 46.434ZM1218.34 49.8119L1214.47 49.7436V27.0026H1211.94V25.6378L1217.13 24H1218.8V33.9801C1219.76 33.4456 1220.65 33.0504 1221.48 32.7945C1222.31 32.5386 1223.1 32.4106 1223.87 32.4106C1225.88 32.4106 1227.53 33.1499 1228.81 34.6284C1230.1 36.107 1230.74 38.012 1230.74 40.3435C1230.74 42.368 1230.27 44.1167 1229.33 45.5895C1228.4 47.0624 1227.03 48.2025 1225.23 49.01C1224.59 49.283 1223.79 49.4849 1222.82 49.6157C1221.85 49.7465 1220.67 49.8119 1219.29 49.8119H1218.34ZM1224.57 46.3231C1225.57 45.2369 1226.07 43.5451 1226.07 41.2477C1226.07 39.2801 1225.63 37.7703 1224.75 36.7183C1223.88 35.6662 1222.63 35.1402 1221 35.1402C1220.7 35.1402 1220.38 35.163 1220.02 35.2084C1219.66 35.2539 1219.25 35.3222 1218.8 35.4132V47.9182C1218.93 47.9296 1219.07 47.9381 1219.23 47.9438C1219.39 47.9495 1219.61 47.9523 1219.91 47.9523C1222.02 47.9523 1223.58 47.4092 1224.57 46.3231ZM1234.35 47.6708C1232.74 46.0615 1231.93 43.9432 1231.93 41.316C1231.93 38.6205 1232.76 36.4567 1234.41 34.8246C1236.05 33.1925 1238.24 32.3765 1240.97 32.3765C1243.66 32.3765 1245.79 33.1868 1247.37 34.8075C1248.95 36.4283 1249.74 38.6205 1249.74 41.3842C1249.74 44.0001 1248.92 46.1041 1247.27 47.6964C1245.62 49.2887 1243.43 50.0848 1240.7 50.0848C1238.07 50.0848 1235.95 49.2802 1234.35 47.6708ZM1243.86 46.434C1244.57 45.2284 1244.93 43.511 1244.93 41.2818C1244.93 39.064 1244.57 37.3353 1243.85 36.0956C1243.13 34.8559 1242.12 34.236 1240.84 34.236C1239.56 34.236 1238.57 34.8445 1237.85 36.0614C1237.13 37.2784 1236.78 38.9844 1236.78 41.1795C1236.78 43.4086 1237.13 45.1431 1237.84 46.3828C1238.55 47.6225 1239.54 48.2423 1240.8 48.2423C1242.12 48.2423 1243.14 47.6395 1243.86 46.434ZM1250.71 49.8119V48.2423L1252.5 48.1059L1253 47.577V35.5155H1250.61V34.1166L1255.64 32.4788H1257.33V34.5431C1258.66 33.8038 1259.81 33.2636 1260.78 32.9224C1261.74 32.5812 1262.58 32.4106 1263.3 32.4106C1264.89 32.4106 1266.08 32.8883 1266.87 33.8436C1267.65 34.799 1268.04 36.2548 1268.04 38.211V47.577L1268.5 48.1058L1270.35 48.2423V49.8119H1261.8V48.2423L1263.3 48.1058L1263.78 47.577V39.2176C1263.78 37.921 1263.53 36.9685 1263.03 36.36C1262.53 35.7515 1261.73 35.4473 1260.64 35.4473C1260.22 35.4473 1259.73 35.4985 1259.18 35.6008C1258.63 35.7032 1258.01 35.851 1257.33 36.0444V47.577L1257.81 48.1058L1259.34 48.2423V49.8119L1250.71 49.8119ZM1272.29 48.848C1271.43 48.0006 1271.01 46.9116 1271.01 45.581C1271.01 43.9432 1271.63 42.6808 1272.88 41.7936C1274.13 40.9065 1277.05 39.9455 1281.64 38.9105V37.8698C1281.64 36.6074 1281.37 35.6861 1280.83 35.1061C1280.3 34.5261 1279.46 34.236 1278.31 34.236C1278.06 34.236 1277.8 34.2531 1277.52 34.2872C1277.25 34.3213 1276.96 34.3725 1276.64 34.4408V37.7163H1273.41C1272.86 37.7163 1272.45 37.6139 1272.19 37.4092C1271.94 37.2045 1271.81 36.8803 1271.81 36.4368C1271.81 35.3449 1272.54 34.3953 1274.01 33.5878C1275.48 32.7802 1277.28 32.3765 1279.42 32.3765C1281.82 32.3765 1283.51 32.8371 1284.48 33.7584C1285.46 34.6796 1285.95 36.2832 1285.95 38.5693V47.6111L1286.41 48.1059L1288.27 48.2765V49.8119H1282.05L1281.58 47.8158C1280.4 48.6234 1279.33 49.2091 1278.36 49.573C1277.39 49.937 1276.47 50.119 1275.58 50.119C1274.24 50.119 1273.14 49.6953 1272.29 48.848ZM1279.72 47.1761C1280.28 46.9998 1280.9 46.7354 1281.58 46.3828V40.6847C1279.29 41.1965 1277.72 41.7538 1276.88 42.3566C1276.03 42.9594 1275.61 43.7783 1275.61 44.8133C1275.61 45.6208 1275.85 46.2605 1276.31 46.7325C1276.78 47.2045 1277.41 47.4405 1278.21 47.4405C1278.65 47.4405 1279.15 47.3524 1279.72 47.1761Z" fill="#A4A4A4"/>
<path d="M1171.99 62.3901V61.9888L1172.65 61.941L1172.81 61.8025V59.7294L1170.86 56.314L1170.26 56.2184V55.8267H1172.54V56.2184L1171.98 56.2757L1171.88 56.3856L1173.38 59.075L1175.02 56.462L1174.93 56.3235L1174.33 56.2184V55.8267H1176.33V56.2184L1175.73 56.3426L1173.7 59.6004V61.8025L1173.86 61.941L1174.52 61.9888V62.3901L1171.99 62.3901ZM1175.86 61.793C1175.44 61.3376 1175.23 60.75 1175.23 60.0303C1175.23 59.3106 1175.44 58.7231 1175.86 58.2677C1176.28 57.8123 1176.83 57.5846 1177.49 57.5846C1178.16 57.5846 1178.71 57.8131 1179.13 58.2701C1179.56 58.727 1179.77 59.3138 1179.77 60.0303C1179.77 60.7468 1179.56 61.3336 1179.13 61.7906C1178.7 62.2476 1178.16 62.476 1177.49 62.476C1176.83 62.476 1176.29 62.2484 1175.86 61.793ZM1178.48 61.5064C1178.73 61.1401 1178.86 60.6481 1178.86 60.0303C1178.86 59.4189 1178.73 58.9285 1178.48 58.5591C1178.23 58.1896 1177.9 58.0049 1177.49 58.0049C1177.09 58.0049 1176.76 58.1889 1176.51 58.5567C1176.27 58.9245 1176.14 59.4157 1176.14 60.0303C1176.14 60.6449 1176.27 61.1361 1176.52 61.504C1176.76 61.8718 1177.09 62.0557 1177.49 62.0557C1177.91 62.0557 1178.23 61.8726 1178.48 61.5064ZM1181.1 62.1011C1180.87 61.8447 1180.76 61.4745 1180.76 60.9905V58.2533H1180.06V57.9476L1181.2 57.5846H1181.57V60.8233C1181.57 61.1799 1181.65 61.4419 1181.8 61.609C1181.95 61.7762 1182.19 61.8598 1182.52 61.8598C1182.7 61.8598 1182.88 61.8359 1183.07 61.7882C1183.26 61.7404 1183.45 61.6672 1183.66 61.5684V58.2533H1182.96V57.9476L1184.09 57.5846H1184.47V61.8312L1184.64 61.9888L1185.1 62.0366V62.39H1183.66V61.8407C1183.35 62.0604 1183.07 62.2229 1182.81 62.328C1182.55 62.433 1182.3 62.4856 1182.07 62.4856C1181.65 62.4856 1181.32 62.3574 1181.1 62.1011ZM1185.34 62.3901V62.0366L1185.86 61.9888L1186.03 61.8312V58.2916H1185.34V57.9858L1186.48 57.6371H1186.85V58.5543C1187.01 58.3919 1187.18 58.2318 1187.35 58.0742C1187.52 57.9166 1187.7 57.7613 1187.9 57.6085C1187.92 57.5989 1187.96 57.5926 1187.99 57.5894C1188.02 57.5862 1188.07 57.5846 1188.14 57.5846C1188.24 57.5846 1188.34 57.5949 1188.43 57.6156C1188.53 57.6363 1188.63 57.669 1188.73 57.7136V58.5543H1188.42C1188.35 58.4778 1188.28 58.4197 1188.19 58.3799C1188.11 58.3401 1188.02 58.3202 1187.91 58.3202C1187.76 58.3202 1187.59 58.3783 1187.42 58.4946C1187.25 58.6108 1187.06 58.7915 1186.85 59.0367V61.8312L1187.02 61.9888L1187.7 62.0366V62.3901L1185.34 62.3901ZM1192.49 62.3901V61.9888L1193.15 61.941L1193.31 61.8025V56.2757H1191.82L1191.68 56.4238L1191.54 57.3314H1191.01V55.8267H1196.53V57.3314H1195.99L1195.86 56.4238L1195.72 56.2757H1194.23V61.8025L1194.39 61.941L1195.05 61.9888V62.3901H1192.49ZM1195.95 62.3901V62.0366L1196.47 61.9888L1196.63 61.8312V58.2916H1195.95V57.9858L1197.08 57.6371H1197.46V58.5543C1197.61 58.3919 1197.78 58.2318 1197.95 58.0742C1198.13 57.9166 1198.31 57.7613 1198.5 57.6085C1198.53 57.5989 1198.56 57.5926 1198.59 57.5894C1198.63 57.5862 1198.68 57.5846 1198.74 57.5846C1198.84 57.5846 1198.94 57.5949 1199.04 57.6156C1199.13 57.6363 1199.23 57.669 1199.33 57.7136V58.5543H1199.02C1198.96 58.4778 1198.88 58.4197 1198.8 58.3799C1198.72 58.3401 1198.62 58.3202 1198.52 58.3202C1198.36 58.3202 1198.2 58.3783 1198.03 58.4946C1197.85 58.6108 1197.66 58.7915 1197.46 59.0367V61.8312L1197.62 61.9888L1198.31 62.0366V62.3901L1195.95 62.3901ZM1200.35 62.1011C1200.13 61.8447 1200.01 61.4745 1200.01 60.9905V58.2533H1199.32V57.9476L1200.45 57.5846H1200.83V60.8233C1200.83 61.1799 1200.9 61.4419 1201.06 61.609C1201.21 61.7762 1201.45 61.8598 1201.77 61.8598C1201.95 61.8598 1202.14 61.8359 1202.32 61.7882C1202.51 61.7404 1202.71 61.6672 1202.91 61.5684V58.2533H1202.21V57.9476L1203.35 57.5846H1203.72V61.8312L1203.9 61.9888L1204.36 62.0366V62.39H1202.91V61.8407C1202.6 62.0604 1202.32 62.2229 1202.06 62.328C1201.8 62.433 1201.56 62.4856 1201.32 62.4856C1200.9 62.4856 1200.58 62.3574 1200.35 62.1011ZM1205.31 62.4259C1205.09 62.3925 1204.89 62.3407 1204.71 62.2706V61H1205.18L1205.3 61.8312C1205.44 61.9108 1205.58 61.9697 1205.71 62.0079C1205.85 62.0461 1205.99 62.0652 1206.13 62.0652C1206.41 62.0652 1206.63 61.9928 1206.8 61.8479C1206.97 61.703 1207.05 61.5127 1207.05 61.2771C1207.05 61.0796 1206.99 60.9164 1206.88 60.7874C1206.76 60.6585 1206.49 60.4953 1206.06 60.2978C1205.57 60.0781 1205.23 59.8711 1205.05 59.6768C1204.88 59.4826 1204.79 59.2421 1204.79 58.9555C1204.79 58.5193 1204.94 58.1817 1205.24 57.9428C1205.55 57.704 1205.97 57.5846 1206.52 57.5846C1206.74 57.5846 1206.95 57.6029 1207.14 57.6395C1207.33 57.6761 1207.5 57.7295 1207.67 57.7995V58.9078H1207.19L1207.11 58.2151C1206.98 58.1451 1206.86 58.0925 1206.74 58.0575C1206.62 58.0225 1206.5 58.0049 1206.39 58.0049C1206.13 58.0049 1205.93 58.067 1205.79 58.1912C1205.64 58.3154 1205.57 58.489 1205.57 58.7119C1205.57 58.8934 1205.63 59.0479 1205.75 59.1753C1205.86 59.3026 1206.08 59.4444 1206.4 59.6004C1206.46 59.6259 1206.53 59.6625 1206.64 59.7103C1207.01 59.8791 1207.28 60.0319 1207.44 60.1688C1207.56 60.2644 1207.65 60.3846 1207.72 60.5295C1207.78 60.6744 1207.81 60.8344 1207.81 61.0096C1207.81 61.4681 1207.65 61.8272 1207.33 62.0867C1207.01 62.3463 1206.56 62.476 1205.98 62.476C1205.75 62.476 1205.52 62.4593 1205.31 62.4259ZM1208.98 62.2062C1208.82 62.0644 1208.75 61.8057 1208.75 61.4299V58.2724H1208.13V57.9667L1208.78 57.6849L1209.2 56.7725H1209.56V57.8139H1211.05V58.2724H1209.56V60.8519C1209.56 61.2755 1209.62 61.5597 1209.74 61.7046C1209.86 61.8495 1210.07 61.9219 1210.37 61.9219C1210.48 61.9219 1210.59 61.9156 1210.7 61.9028C1210.81 61.8901 1210.93 61.8694 1211.05 61.8407V62.2038C1210.83 62.2738 1210.61 62.3272 1210.39 62.3638C1210.18 62.4004 1209.97 62.4187 1209.77 62.4187C1209.39 62.4187 1209.13 62.3479 1208.98 62.2062ZM1211.8 61.8097C1211.39 61.3654 1211.19 60.7867 1211.19 60.0733C1211.19 59.3409 1211.4 58.743 1211.83 58.2796C1212.25 57.8163 1212.79 57.5846 1213.45 57.5846C1213.99 57.5846 1214.42 57.7574 1214.74 58.1029C1215.06 58.4484 1215.22 58.9189 1215.22 59.5144C1215.22 59.594 1215.21 59.6545 1215.21 59.6959C1215.21 59.7373 1215.21 59.7772 1215.2 59.8154H1212.03V59.9252C1212.03 60.5399 1212.18 61.0263 1212.48 61.3846C1212.77 61.7428 1213.17 61.9219 1213.68 61.9219C1213.91 61.9219 1214.15 61.8758 1214.4 61.7834C1214.65 61.6911 1214.92 61.5478 1215.22 61.3535V61.8933C1214.93 62.0844 1214.62 62.2293 1214.31 62.328C1214 62.4267 1213.69 62.4761 1213.37 62.4761C1212.72 62.4761 1212.2 62.2539 1211.8 61.8097ZM1214.34 59.2517C1214.34 58.8568 1214.25 58.5543 1214.08 58.3441C1213.91 58.1339 1213.65 58.0288 1213.32 58.0288C1213 58.0288 1212.72 58.1586 1212.48 58.4181C1212.24 58.6777 1212.11 59.0065 1212.08 59.4045H1214.34L1214.34 59.2517ZM1216.2 61.8336C1215.84 61.4052 1215.66 60.8567 1215.66 60.188C1215.66 59.4109 1215.9 58.7812 1216.36 58.2987C1216.83 57.8163 1217.44 57.575 1218.19 57.575C1218.32 57.575 1218.45 57.5846 1218.6 57.6037C1218.75 57.6228 1218.9 57.6499 1219.05 57.6849V55.8458H1218.3V55.5401L1219.5 55.1914H1219.87V61.8312L1220.03 61.9888L1220.5 62.0366V62.3901H1219.05V61.8837C1218.8 62.0875 1218.55 62.2372 1218.31 62.3327C1218.07 62.4283 1217.81 62.476 1217.55 62.476C1217 62.476 1216.55 62.2619 1216.2 61.8336ZM1218.51 61.7762C1218.69 61.7205 1218.87 61.6353 1219.05 61.5207V58.1626C1218.88 58.1116 1218.72 58.0726 1218.57 58.0456C1218.43 58.0185 1218.31 58.005 1218.19 58.005C1217.69 58.005 1217.29 58.1897 1216.98 58.5591C1216.68 58.9285 1216.52 59.4157 1216.52 60.0208C1216.52 60.5844 1216.66 61.0319 1216.92 61.3631C1217.19 61.6943 1217.54 61.8599 1217.99 61.8599C1218.16 61.8599 1218.34 61.832 1218.51 61.7762ZM1225.78 62.4092C1225.5 62.3423 1225.24 62.2452 1225.01 62.1178C1224.49 61.8184 1224.07 61.4005 1223.77 60.8639C1223.47 60.3273 1223.32 59.7405 1223.32 59.1036C1223.32 58.0846 1223.63 57.2637 1224.26 56.6412C1224.88 56.0186 1225.7 55.7073 1226.72 55.7073C1227.01 55.7073 1227.32 55.7352 1227.64 55.7909C1227.97 55.8466 1228.3 55.9302 1228.65 56.0417V57.5464H1228.11L1227.96 56.6579L1227.83 56.4811C1227.64 56.3952 1227.46 56.3315 1227.28 56.2901C1227.1 56.2487 1226.92 56.228 1226.74 56.228C1226 56.228 1225.41 56.4795 1224.98 56.9827C1224.55 57.4859 1224.33 58.1705 1224.33 59.0367C1224.33 59.9571 1224.56 60.6792 1225.01 61.203C1225.46 61.7269 1226.09 61.9888 1226.89 61.9888C1227.03 61.9888 1227.17 61.9785 1227.31 61.9578C1227.45 61.9371 1227.59 61.9044 1227.74 61.8598L1227.89 61.707L1228.13 60.6179H1228.65V62.1656C1228.33 62.277 1228 62.3622 1227.67 62.4211C1227.33 62.48 1227.01 62.5095 1226.68 62.5095C1226.36 62.5095 1226.06 62.476 1225.78 62.4092ZM1230.04 62.1011C1229.82 61.8447 1229.71 61.4745 1229.71 60.9905V58.2533H1229.01V57.9476L1230.15 57.5846H1230.52V60.8233C1230.52 61.1799 1230.6 61.4419 1230.75 61.609C1230.9 61.7762 1231.14 61.8598 1231.47 61.8598C1231.65 61.8598 1231.83 61.8359 1232.02 61.7882C1232.2 61.7404 1232.4 61.6672 1232.6 61.5684V58.2533H1231.9V57.9476L1233.04 57.5846H1233.41V61.8312L1233.59 61.9888L1234.05 62.0366V62.39H1232.6V61.8407C1232.3 62.0604 1232.01 62.2229 1231.75 62.328C1231.49 62.433 1231.25 62.4856 1231.02 62.4856C1230.59 62.4856 1230.27 62.3574 1230.04 62.1011ZM1234.29 62.3901V62.0366L1234.81 61.9888L1234.98 61.8312V58.2916H1234.29V57.9858L1235.42 57.6371H1235.8V58.5543C1235.96 58.3919 1236.12 58.2318 1236.3 58.0742C1236.47 57.9166 1236.65 57.7613 1236.84 57.6085C1236.87 57.5989 1236.9 57.5926 1236.94 57.5894C1236.97 57.5862 1237.02 57.5846 1237.09 57.5846C1237.19 57.5846 1237.28 57.5949 1237.38 57.6156C1237.47 57.6363 1237.57 57.669 1237.67 57.7136V58.5543H1237.36C1237.3 58.4778 1237.23 58.4197 1237.14 58.3799C1237.06 58.3401 1236.96 58.3202 1236.86 58.3202C1236.71 58.3202 1236.54 58.3783 1236.37 58.4946C1236.19 58.6108 1236 58.7915 1235.8 59.0367V61.8312L1235.96 61.9888L1236.65 62.0366V62.3901L1234.29 62.3901ZM1237.7 62.3901V62.0366L1238.22 61.9888L1238.38 61.8312V58.2916H1237.7V57.9858L1238.83 57.6371H1239.21V58.5543C1239.37 58.3919 1239.53 58.2318 1239.71 58.0742C1239.88 57.9166 1240.06 57.7613 1240.25 57.6085C1240.28 57.5989 1240.31 57.5926 1240.35 57.5894C1240.38 57.5862 1240.43 57.5846 1240.5 57.5846C1240.59 57.5846 1240.69 57.5949 1240.79 57.6156C1240.88 57.6363 1240.98 57.669 1241.08 57.7136V58.5543H1240.77C1240.71 58.4778 1240.64 58.4197 1240.55 58.3799C1240.47 58.3401 1240.37 58.3202 1240.27 58.3202C1240.12 58.3202 1239.95 58.3783 1239.78 58.4946C1239.6 58.6108 1239.41 58.7915 1239.21 59.0367V61.8312L1239.37 61.9888L1240.06 62.0366V62.3901L1237.7 62.3901ZM1241.92 56.4286C1241.81 56.3203 1241.76 56.1882 1241.76 56.0321C1241.76 55.8729 1241.81 55.7384 1241.92 55.6285C1242.03 55.5186 1242.16 55.4637 1242.32 55.4637C1242.48 55.4637 1242.61 55.5194 1242.72 55.6309C1242.83 55.7423 1242.89 55.8761 1242.89 56.0321C1242.89 56.1882 1242.83 56.3203 1242.72 56.4286C1242.61 56.5369 1242.48 56.591 1242.32 56.591C1242.16 56.591 1242.03 56.5369 1241.92 56.4286ZM1241.16 62.3901V62.0366L1241.67 61.9888L1241.84 61.8312V58.2916H1241.16V57.9858L1242.28 57.6371H1242.66V61.8312L1242.83 61.9888L1243.36 62.0366V62.3901L1241.16 62.3901ZM1244.19 61.8097C1243.79 61.3654 1243.59 60.7867 1243.59 60.0733C1243.59 59.3409 1243.8 58.743 1244.22 58.2796C1244.64 57.8163 1245.19 57.5846 1245.85 57.5846C1246.39 57.5846 1246.82 57.7574 1247.14 58.1029C1247.45 58.4484 1247.61 58.9189 1247.61 59.5144C1247.61 59.594 1247.61 59.6545 1247.61 59.6959C1247.61 59.7373 1247.6 59.7772 1247.6 59.8154H1244.43V59.9252C1244.43 60.5399 1244.58 61.0263 1244.87 61.3846C1245.17 61.7428 1245.57 61.9219 1246.07 61.9219C1246.31 61.9219 1246.55 61.8758 1246.8 61.7834C1247.05 61.6911 1247.32 61.5478 1247.61 61.3535V61.8933C1247.32 62.0844 1247.02 62.2293 1246.71 62.328C1246.4 62.4267 1246.08 62.4761 1245.77 62.4761C1245.12 62.4761 1244.6 62.2539 1244.19 61.8097ZM1246.74 59.2517C1246.74 58.8568 1246.65 58.5543 1246.48 58.3441C1246.3 58.1339 1246.05 58.0288 1245.72 58.0288C1245.39 58.0288 1245.11 58.1586 1244.88 58.4181C1244.64 58.6777 1244.51 59.0065 1244.48 59.4045H1246.74L1246.74 59.2517ZM1248 62.3901V62.0366L1248.52 61.9888L1248.68 61.8312V58.2916H1248V57.9858L1249.13 57.6371H1249.51V58.5543C1249.67 58.3919 1249.83 58.2318 1250.01 58.0742C1250.18 57.9166 1250.36 57.7613 1250.55 57.6085C1250.58 57.5989 1250.61 57.5926 1250.65 57.5894C1250.68 57.5862 1250.73 57.5846 1250.8 57.5846C1250.89 57.5846 1250.99 57.5949 1251.09 57.6156C1251.18 57.6363 1251.28 57.669 1251.38 57.7136V58.5543H1251.07C1251.01 58.4778 1250.94 58.4197 1250.85 58.3799C1250.77 58.3401 1250.67 58.3202 1250.57 58.3202C1250.42 58.3202 1250.25 58.3783 1250.08 58.4946C1249.9 58.6108 1249.71 58.7915 1249.51 59.0367V61.8312L1249.67 61.9888L1250.36 62.0366V62.3901L1248 62.3901Z" fill="#A4A4A4"/>
</svg>
