<svg width="21" height="16" viewBox="0 0 21 16" fill="none" xmlns="http://www.w3.org/2000/svg">
<path d="M18.9997 15.1998H2.1877C1.1917 15.1998 0.387695 14.3958 0.387695 13.3998V2.5998C0.387695 1.6038 1.1917 0.799805 2.1877 0.799805H18.9997C19.9957 0.799805 20.7997 1.6038 20.7997 2.5998V13.3998C20.7997 14.3958 19.9957 15.1998 18.9997 15.1998ZM19.2277 2.46781C18.8317 2.07181 18.4237 2.26381 18.0877 2.55181L10.5877 8.5998L3.0997 2.55181C2.7637 2.26381 2.3557 2.07181 1.9597 2.46781C1.5637 2.86381 1.7797 3.27181 1.9957 3.47581L6.8677 7.93981L2.1877 12.8118C2.0437 12.9798 1.9477 13.2438 2.1157 13.4238C2.2717 13.6158 2.6317 13.6038 2.7877 13.4838L8.0317 9.00781L10.5877 11.3478L13.1557 9.00781L18.3997 13.4838C18.5557 13.6038 18.9157 13.6158 19.0717 13.4238C19.2397 13.2438 19.1437 12.9798 18.9997 12.8118L14.3197 7.93981L19.1917 3.47581C19.4077 3.27181 19.6237 2.86381 19.2277 2.46781Z" fill="white"/>
</svg>
